<svg width="14" height="15" viewBox="0 0 14 15" fill="currentColor"
  xmlns="http://www.w3.org/2000/svg">
  <path d="M9.87488 7.00345H7.49988V4.62845C7.49988 4.5597 7.44363 4.50345 7.37488 4.50345H6.62488C6.55613 4.50345 6.49988 4.5597 6.49988 4.62845V7.00345H4.12488C4.05613 7.00345 3.99988 7.0597 3.99988 7.12845V7.87845C3.99988 7.9472 4.05613 8.00345 4.12488 8.00345H6.49988V10.3785C6.49988 10.4472 6.55613 10.5035 6.62488 10.5035H7.37488C7.44363 10.5035 7.49988 10.4472 7.49988 10.3785V8.00345H9.87488C9.94363 8.00345 9.99988 7.9472 9.99988 7.87845V7.12845C9.99988 7.0597 9.94363 7.00345 9.87488 7.00345Z" fill="currentColor"/>
  <path d="M7 0.502716C3.13437 0.502716 0 3.63709 0 7.50272C0 11.3683 3.13437 14.5027 7 14.5027C10.8656 14.5027 14 11.3683 14 7.50272C14 3.63709 10.8656 0.502716 7 0.502716ZM7 13.3152C3.79063 13.3152 1.1875 10.7121 1.1875 7.50272C1.1875 4.29334 3.79063 1.69022 7 1.69022C10.2094 1.69022 12.8125 4.29334 12.8125 7.50272C12.8125 10.7121 10.2094 13.3152 7 13.3152Z" fill="currentColor"/>
</svg>
