<svg width="16" height="16" viewBox="0 0 16 16" fill="currentColor" xmlns="http://www.w3.org/2000/svg">
<path d="M15.0733 5.66653L10.5394 5.0076L8.5126 0.898672C8.45725 0.786172 8.36617 0.695101 8.25367 0.639744C7.97153 0.500458 7.62867 0.61653 7.4876 0.898672L5.46082 5.0076L0.926889 5.66653C0.801889 5.68439 0.687603 5.74331 0.600103 5.8326C0.494321 5.94133 0.43603 6.0876 0.438039 6.23928C0.440048 6.39096 0.502192 6.53564 0.610817 6.64153L3.89117 9.83974L3.11617 14.3558C3.098 14.4609 3.10963 14.5689 3.14973 14.6677C3.18984 14.7665 3.25682 14.852 3.34308 14.9147C3.42935 14.9774 3.53144 15.0146 3.63778 15.0222C3.74412 15.0297 3.85047 15.0074 3.94475 14.9576L8.0001 12.8255L12.0555 14.9576C12.1662 15.0165 12.2947 15.0362 12.418 15.0147C12.7287 14.9612 12.9376 14.6665 12.884 14.3558L12.109 9.83974L15.3894 6.64153C15.4787 6.55403 15.5376 6.43974 15.5555 6.31474C15.6037 6.00224 15.3858 5.71296 15.0733 5.66653ZM10.7287 9.38974L11.3733 13.1451L8.0001 11.3737L4.62689 13.1469L5.27153 9.39153L2.54296 6.73082L6.31439 6.1826L8.0001 2.76653L9.68582 6.1826L13.4572 6.73082L10.7287 9.38974Z" fill="currentColor"/>
</svg>