<svg width="18" height="18" viewBox="0 0 18 18" fill="none" xmlns="http://www.w3.org/2000/svg">
<path fill-rule="evenodd" clip-rule="evenodd" d="M11.4142 5.22676C11.4665 5.17437 11.5286 5.13281 11.5969 5.10445C11.6652 5.0761 11.7385 5.0615 11.8125 5.0615C11.8865 5.0615 11.9597 5.0761 12.0281 5.10445C12.0964 5.13281 12.1585 5.17437 12.2107 5.22676L15.5857 8.60176C15.6381 8.65401 15.6797 8.71608 15.708 8.78442C15.7364 8.85276 15.751 8.92602 15.751 9.00001C15.751 9.07399 15.7364 9.14725 15.708 9.21559C15.6797 9.28393 15.6381 9.346 15.5857 9.39826L12.2107 12.7733C12.1051 12.8789 11.9619 12.9382 11.8125 12.9382C11.6631 12.9382 11.5199 12.8789 11.4142 12.7733C11.3086 12.6676 11.2493 12.5244 11.2493 12.375C11.2493 12.2256 11.3086 12.0824 11.4142 11.9768L14.3921 9.00001L11.4142 6.02326C11.3619 5.971 11.3203 5.90893 11.2919 5.84059C11.2636 5.77226 11.249 5.69899 11.249 5.62501C11.249 5.55102 11.2636 5.47776 11.2919 5.40942C11.3203 5.34108 11.3619 5.27901 11.4142 5.22676Z" fill="currentColor"/>
<path fill-rule="evenodd" clip-rule="evenodd" d="M2.25 9C2.25 8.85082 2.30926 8.70774 2.41475 8.60225C2.52024 8.49676 2.66332 8.4375 2.8125 8.4375H14.625C14.7742 8.4375 14.9173 8.49676 15.0227 8.60225C15.1282 8.70774 15.1875 8.85082 15.1875 9C15.1875 9.14918 15.1282 9.29226 15.0227 9.39775C14.9173 9.50324 14.7742 9.5625 14.625 9.5625H2.8125C2.66332 9.5625 2.52024 9.50324 2.41475 9.39775C2.30926 9.29226 2.25 9.14918 2.25 9Z" fill="currentColor"/>
</svg>
