<svg width="18" height="18" viewBox="0 0 18 18" fill="none" xmlns="http://www.w3.org/2000/svg">
<path fill-rule="evenodd" clip-rule="evenodd" d="M6.58575 5.22676C6.63813 5.27901 6.67969 5.34108 6.70805 5.40942C6.73641 5.47776 6.751 5.55102 6.751 5.62501C6.751 5.69899 6.73641 5.77226 6.70805 5.84059C6.67969 5.90893 6.63813 5.971 6.58575 6.02326L3.60787 9.00001L6.58575 11.9768C6.63805 12.0291 6.67953 12.0911 6.70784 12.1595C6.73614 12.2278 6.75071 12.301 6.75071 12.375C6.75071 12.449 6.73614 12.5222 6.70784 12.5905C6.67953 12.6589 6.63805 12.721 6.58575 12.7733C6.53345 12.8256 6.47136 12.867 6.40303 12.8953C6.3347 12.9236 6.26146 12.9382 6.1875 12.9382C6.11354 12.9382 6.0403 12.9236 5.97197 12.8953C5.90364 12.867 5.84155 12.8256 5.78925 12.7733L2.41425 9.39826C2.36186 9.346 2.3203 9.28393 2.29195 9.21559C2.26359 9.14725 2.24899 9.07399 2.24899 9.00001C2.24899 8.92602 2.26359 8.85276 2.29195 8.78442C2.3203 8.71608 2.36186 8.65401 2.41425 8.60176L5.78925 5.22676C5.8415 5.17437 5.90357 5.13281 5.97191 5.10445C6.04025 5.0761 6.11351 5.0615 6.1875 5.0615C6.26149 5.0615 6.33475 5.0761 6.40309 5.10445C6.47142 5.13281 6.5335 5.17437 6.58575 5.22676Z" fill="currentColor"/>
<path fill-rule="evenodd" clip-rule="evenodd" d="M2.8125 9C2.8125 8.85082 2.87176 8.70774 2.97725 8.60225C3.08274 8.49676 3.22582 8.4375 3.375 8.4375H15.1875C15.3367 8.4375 15.4798 8.49676 15.5852 8.60225C15.6907 8.70774 15.75 8.85082 15.75 9C15.75 9.14918 15.6907 9.29226 15.5852 9.39775C15.4798 9.50324 15.3367 9.5625 15.1875 9.5625H3.375C3.22582 9.5625 3.08274 9.50324 2.97725 9.39775C2.87176 9.29226 2.8125 9.14918 2.8125 9Z" fill="currentColor"/>
</svg>
