<svg width="7" height="10" viewBox="0 0 7 10" fill="currentColor"
  xmlns="http://www.w3.org/2000/svg">
  <path d="M6.25031 1.3285V0.362247C6.25031 0.278497 6.15406 0.232247 6.08906 0.283497L0.454061 4.68475C0.406184 4.72198 0.367443 4.76966 0.340795 4.82414C0.314146 4.87862 0.300293 4.93847 0.300293 4.99912C0.300293 5.05977 0.314146 5.11962 0.340795 5.17411C0.367443 5.22859 0.406184 5.27626 0.454061 5.3135L6.08906 9.71475C6.15531 9.766 6.25031 9.71975 6.25031 9.636V8.66975C6.25031 8.6085 6.22156 8.54975 6.17406 8.51225L1.67406 4.99975L6.17406 1.486C6.22156 1.4485 6.25031 1.38975 6.25031 1.3285Z" fill="currentColor"/>
</svg>