<svg width="15" height="15" viewBox="0 0 15 15" fill="currentColor" xmlns="http://www.w3.org/2000/svg">
<path d="M7.14369 0.932373H1.71512C1.55798 0.932373 1.42941 1.06094 1.42941 1.21809V6.64666C1.42941 6.8038 1.55798 6.93237 1.71512 6.93237H7.14369C7.30084 6.93237 7.42941 6.8038 7.42941 6.64666V1.21809C7.42941 1.06094 7.30084 0.932373 7.14369 0.932373ZM6.21512 5.71809H2.64369V2.14666H6.21512V5.71809ZM14.2866 0.932373H8.85798C8.70084 0.932373 8.57227 1.06094 8.57227 1.21809V6.64666C8.57227 6.8038 8.70084 6.93237 8.85798 6.93237H14.2866C14.4437 6.93237 14.5723 6.8038 14.5723 6.64666V1.21809C14.5723 1.06094 14.4437 0.932373 14.2866 0.932373ZM13.358 5.71809H9.78655V2.14666H13.358V5.71809ZM14.2866 8.07523H8.85798C8.70084 8.07523 8.57227 8.2038 8.57227 8.36095V13.7895C8.57227 13.9467 8.70084 14.0752 8.85798 14.0752H14.2866C14.4437 14.0752 14.5723 13.9467 14.5723 13.7895V8.36095C14.5723 8.2038 14.4437 8.07523 14.2866 8.07523ZM13.358 12.8609H9.78655V9.28952H13.358V12.8609ZM6.42941 11.0752H4.14369V8.78952C4.14369 8.71095 4.07941 8.64666 4.00084 8.64666H3.14369C3.06512 8.64666 3.00084 8.71095 3.00084 8.78952V11.0752H0.715123C0.636551 11.0752 0.572266 11.1395 0.572266 11.2181V12.0752C0.572266 12.1538 0.636551 12.2181 0.715123 12.2181H3.00084V14.5038C3.00084 14.5824 3.06512 14.6467 3.14369 14.6467H4.00084C4.07941 14.6467 4.14369 14.5824 4.14369 14.5038V12.2181H6.42941C6.50798 12.2181 6.57227 12.1538 6.57227 12.0752V11.2181C6.57227 11.1395 6.50798 11.0752 6.42941 11.0752Z" fill="currentColor"/>
</svg>