<svg xmlns="http://www.w3.org/2000/svg" width="17" height="17" viewBox="0 0 17 17" fill="none">
  <path fill-rule="evenodd" clip-rule="evenodd" d="M14.354 4.14592C14.4006 4.19236 14.4375 4.24754 14.4627 4.30828C14.4879 4.36903 14.5009 4.43415 14.5009 4.49992C14.5009 4.56568 14.4879 4.63081 14.4627 4.69155C14.4375 4.7523 14.4006 4.80747 14.354 4.85392L7.35399 11.8539C7.30754 11.9005 7.25237 11.9374 7.19162 11.9626C7.13088 11.9878 7.06576 12.0008 6.99999 12.0008C6.93422 12.0008 6.8691 11.9878 6.80836 11.9626C6.74761 11.9374 6.69244 11.9005 6.64599 11.8539L3.14599 8.35392C3.0521 8.26003 2.99936 8.13269 2.99936 7.99992C2.99936 7.86714 3.0521 7.7398 3.14599 7.64592C3.23988 7.55203 3.36721 7.49929 3.49999 7.49929C3.63277 7.49929 3.7601 7.55203 3.85399 7.64592L6.99999 10.7929L13.646 4.14592C13.6924 4.09935 13.7476 4.06241 13.8084 4.0372C13.8691 4.012 13.9342 3.99902 14 3.99902C14.0658 3.99902 14.1309 4.012 14.1916 4.0372C14.2524 4.06241 14.3075 4.09935 14.354 4.14592Z" fill="#28A745"/>
</svg>