<svg width="21" height="21" viewBox="0 0 21 21" fill="none"
  xmlns="http://www.w3.org/2000/svg">
  <path fill-rule="evenodd" clip-rule="evenodd" d="M3.28125 15.0938C3.28125 14.9197 3.35039 14.7528 3.47346 14.6297C3.59653 14.5066 3.76345 14.4375 3.9375 14.4375H17.0625C17.2365 14.4375 17.4035 14.5066 17.5265 14.6297C17.6496 14.7528 17.7188 14.9197 17.7188 15.0938C17.7188 15.2678 17.6496 15.4347 17.5265 15.5578C17.4035 15.6809 17.2365 15.75 17.0625 15.75H3.9375C3.76345 15.75 3.59653 15.6809 3.47346 15.5578C3.35039 15.4347 3.28125 15.2678 3.28125 15.0938ZM3.28125 9.84375C3.28125 9.6697 3.35039 9.50278 3.47346 9.37971C3.59653 9.25664 3.76345 9.1875 3.9375 9.1875H17.0625C17.2365 9.1875 17.4035 9.25664 17.5265 9.37971C17.6496 9.50278 17.7188 9.6697 17.7188 9.84375C17.7188 10.0178 17.6496 10.1847 17.5265 10.3078C17.4035 10.4309 17.2365 10.5 17.0625 10.5H3.9375C3.76345 10.5 3.59653 10.4309 3.47346 10.3078C3.35039 10.1847 3.28125 10.0178 3.28125 9.84375ZM3.28125 4.59375C3.28125 4.4197 3.35039 4.25278 3.47346 4.12971C3.59653 4.00664 3.76345 3.9375 3.9375 3.9375H17.0625C17.2365 3.9375 17.4035 4.00664 17.5265 4.12971C17.6496 4.25278 17.7188 4.4197 17.7188 4.59375C17.7188 4.7678 17.6496 4.93472 17.5265 5.05779C17.4035 5.18086 17.2365 5.25 17.0625 5.25H3.9375C3.76345 5.25 3.59653 5.18086 3.47346 5.05779C3.35039 4.93472 3.28125 4.7678 3.28125 4.59375Z" fill="currentColor"/>
</svg>
