<svg width="14" height="17" viewBox="0 0 14 17" fill="currentColor"
  xmlns="http://www.w3.org/2000/svg">
  <path d="M13.1174 4.51343L9.27458 0.670573C9.16744 0.56343 9.0228 0.502716 8.87101 0.502716H1.2853C0.969224 0.502716 0.713867 0.758073 0.713867 1.07414V15.9313C0.713867 16.2474 0.969224 16.5027 1.2853 16.5027H12.7139C13.0299 16.5027 13.2853 16.2474 13.2853 15.9313V4.91879C13.2853 4.767 13.2246 4.62057 13.1174 4.51343ZM11.9674 5.18129H8.60673V1.82057L11.9674 5.18129ZM11.9996 15.217H1.99958V1.78843H7.39244V5.64557C7.39244 5.84449 7.47146 6.03525 7.61211 6.1759C7.75276 6.31656 7.94353 6.39557 8.14244 6.39557H11.9996V15.217ZM6.85673 10.3956H3.57101C3.49244 10.3956 3.42815 10.4599 3.42815 10.5384V11.3956C3.42815 11.4741 3.49244 11.5384 3.57101 11.5384H6.85673C6.9353 11.5384 6.99958 11.4741 6.99958 11.3956V10.5384C6.99958 10.4599 6.9353 10.3956 6.85673 10.3956ZM3.42815 8.10986V8.967C3.42815 9.04557 3.49244 9.10986 3.57101 9.10986H10.4282C10.5067 9.10986 10.571 9.04557 10.571 8.967V8.10986C10.571 8.03129 10.5067 7.967 10.4282 7.967H3.57101C3.49244 7.967 3.42815 8.03129 3.42815 8.10986Z" fill="currentColor"/>
</svg>
