<svg width="14" height="15" viewBox="0 0 14 15" fill="currentColor"
  xmlns="http://www.w3.org/2000/svg">
  <path d="M9.87488 7.00199H4.12488C4.05613 7.00199 3.99988 7.05824 3.99988 7.12699V7.87699C3.99988 7.94574 4.05613 8.00199 4.12488 8.00199H9.87488C9.94363 8.00199 9.99988 7.94574 9.99988 7.87699V7.12699C9.99988 7.05824 9.94363 7.00199 9.87488 7.00199Z" fill="currentColor"/>
  <path d="M7 0.502724C3.13437 0.502724 0 3.6371 0 7.50272C0 11.3683 3.13437 14.5027 7 14.5027C10.8656 14.5027 14 11.3683 14 7.50272C14 3.6371 10.8656 0.502724 7 0.502724ZM7 13.3152C3.79063 13.3152 1.1875 10.7121 1.1875 7.50272C1.1875 4.29335 3.79063 1.69022 7 1.69022C10.2094 1.69022 12.8125 4.29335 12.8125 7.50272C12.8125 10.7121 10.2094 13.3152 7 13.3152Z" fill="currentColor"/>
</svg>