<svg width="13" height="18" viewBox="0 0 13 18" fill="currentColor" xmlns="http://www.w3.org/2000/svg">
<path d="M4.41071 7.69124C4.36765 7.63697 4.31417 7.59186 4.25342 7.55857C4.19267 7.52527 4.12588 7.50446 4.05697 7.49736C3.98805 7.49026 3.91842 7.49702 3.85216 7.51723C3.7859 7.53744 3.72435 7.5707 3.67113 7.61505C3.61791 7.65939 3.5741 7.71394 3.54227 7.77547C3.51044 7.837 3.49124 7.90428 3.4858 7.97334C3.48035 8.0424 3.48878 8.11185 3.51057 8.17761C3.53237 8.24337 3.56709 8.3041 3.61271 8.35624L5.93293 11.1409L3.61271 13.9256C3.5284 14.0319 3.48899 14.1669 3.50289 14.3018C3.51679 14.4367 3.5829 14.5608 3.68709 14.6477C3.79129 14.7345 3.9253 14.7771 4.06051 14.7665C4.19572 14.7558 4.3214 14.6927 4.41071 14.5906L6.60936 11.9524L8.80802 14.5917C8.89634 14.6975 9.02308 14.7639 9.16036 14.7762C9.22834 14.7824 9.29685 14.7751 9.362 14.7547C9.42714 14.7344 9.48764 14.7014 9.54004 14.6576C9.59244 14.6139 9.63571 14.5603 9.66738 14.4998C9.69905 14.4394 9.71851 14.3733 9.72463 14.3053C9.73076 14.2373 9.72344 14.1688 9.70309 14.1037C9.68273 14.0385 9.64975 13.978 9.60602 13.9256L7.28579 11.1409L9.60602 8.35624C9.69032 8.24999 9.72973 8.11499 9.71583 7.98008C9.70193 7.84516 9.63583 7.72103 9.53163 7.6342C9.42744 7.54738 9.29342 7.50474 9.15821 7.51539C9.023 7.52605 8.89732 7.58916 8.80802 7.69124L6.60936 10.3294L4.41071 7.6902V7.69124Z" fill="currentColor"/>
<path d="M12.8438 15.2969V5.42578L8.16797 0.75H2.45312C1.90197 0.75 1.37339 0.968945 0.983669 1.35867C0.593945 1.74839 0.375 2.27697 0.375 2.82812V15.2969C0.375 15.848 0.593945 16.3766 0.983669 16.7663C1.37339 17.1561 1.90197 17.375 2.45312 17.375H10.7656C11.3168 17.375 11.8454 17.1561 12.2351 16.7663C12.6248 16.3766 12.8438 15.848 12.8438 15.2969ZM8.16797 3.86719C8.16797 4.28055 8.33218 4.67699 8.62447 4.96928C8.91676 5.26157 9.3132 5.42578 9.72656 5.42578H11.8047V15.2969C11.8047 15.5725 11.6952 15.8367 11.5004 16.0316C11.3055 16.2265 11.0412 16.3359 10.7656 16.3359H2.45312C2.17755 16.3359 1.91326 16.2265 1.7184 16.0316C1.52353 15.8367 1.41406 15.5725 1.41406 15.2969V2.82812C1.41406 2.55255 1.52353 2.28826 1.7184 2.0934C1.91326 1.89853 2.17755 1.78906 2.45312 1.78906H8.16797V3.86719Z" fill="currentColor"/>
</svg>