<svg width="12" height="15" viewBox="0 0 12 15" fill="currentColor" xmlns="http://www.w3.org/2000/svg">
<path d="M6 0.502724L0 2.50272V8.50272C0 11.8168 2.68594 14.5027 6 14.5027C9.31406 14.5027 12 11.8168 12 8.50272V2.50272L6 0.502724ZM10.875 8.50272C10.875 11.1949 8.69219 13.3777 6 13.3777C3.30781 13.3777 1.125 11.1949 1.125 8.50272V3.34647L6 1.62772L10.875 3.34647V8.50272Z" fill="currentColor"/>
<path d="M3.91175 6.92426C3.85962 6.87189 3.79765 6.83033 3.72941 6.80197C3.66116 6.77362 3.58799 6.75902 3.5141 6.75902C3.4402 6.75902 3.36702 6.77362 3.29878 6.80197C3.23054 6.83033 3.16857 6.87189 3.11644 6.92426C3.06407 6.9764 3.02251 7.03837 2.99415 7.10661C2.96579 7.17485 2.95119 7.24802 2.95119 7.32192C2.95119 7.39582 2.96579 7.46899 2.99415 7.53723C3.02251 7.60547 3.06407 7.66744 3.11644 7.71958L5.17113 9.77426C5.22044 9.82367 5.27902 9.86287 5.3435 9.88961C5.40798 9.91636 5.4771 9.93012 5.54691 9.93012C5.61671 9.93012 5.68584 9.91636 5.75032 9.88961C5.8148 9.86287 5.87337 9.82367 5.92269 9.77426L9.41488 6.28208C9.46428 6.23276 9.50348 6.17419 9.53023 6.1097C9.55697 6.04522 9.57074 5.9761 9.57074 5.90629C9.57074 5.83649 9.55697 5.76736 9.53023 5.70288C9.50348 5.6384 9.46428 5.57983 9.41488 5.53051L9.37113 5.48676C9.32181 5.43736 9.26324 5.39816 9.19876 5.37141C9.13427 5.34467 9.06515 5.3309 8.99534 5.3309C8.92554 5.3309 8.85641 5.34467 8.79193 5.37141C8.72745 5.39816 8.66888 5.43736 8.61956 5.48676L5.54613 8.55864L3.91175 6.92426Z" fill="currentColor"/>
</svg>