<svg width="16" height="15" viewBox="0 0 16 15" fill="currentColor" xmlns="http://www.w3.org/2000/svg">
<path d="M7.14331 11.217C7.14331 11.4443 7.23362 11.6624 7.39436 11.8231C7.55511 11.9838 7.77312 12.0742 8.00045 12.0742C8.22778 12.0742 8.4458 11.9838 8.60654 11.8231C8.76729 11.6624 8.8576 11.4443 8.8576 11.217C8.8576 10.9897 8.76729 10.7717 8.60654 10.6109C8.4458 10.4502 8.22778 10.3599 8.00045 10.3599C7.77312 10.3599 7.55511 10.4502 7.39436 10.6109C7.23362 10.7717 7.14331 10.9897 7.14331 11.217ZM7.42902 5.78843V9.07415C7.42902 9.15272 7.49331 9.21701 7.57188 9.21701H8.42902C8.5076 9.21701 8.57188 9.15272 8.57188 9.07415V5.78843C8.57188 5.70986 8.5076 5.64558 8.42902 5.64558H7.57188C7.49331 5.64558 7.42902 5.70986 7.42902 5.78843ZM15.9237 13.6456L8.4951 0.788434C8.38438 0.597363 8.19331 0.50272 8.00045 0.50272C7.8076 0.50272 7.61474 0.597363 7.50581 0.788434L0.0772382 13.6456C-0.142405 14.0277 0.132595 14.5027 0.571881 14.5027H15.429C15.8683 14.5027 16.1433 14.0277 15.9237 13.6456ZM1.9326 13.1474L8.00045 2.64379L14.0683 13.1474H1.9326Z" fill="currentColor"/>
</svg>