<svg width="18" height="18" viewBox="0 0 18 18" fill="none" xmlns="http://www.w3.org/2000/svg">
<path fill-rule="evenodd" clip-rule="evenodd" d="M5.625 12.9375C5.625 12.7883 5.68426 12.6452 5.78975 12.5398C5.89524 12.4343 6.03832 12.375 6.1875 12.375H16.3125C16.4617 12.375 16.6048 12.4343 16.7102 12.5398C16.8157 12.6452 16.875 12.7883 16.875 12.9375C16.875 13.0867 16.8157 13.2298 16.7102 13.3352C16.6048 13.4407 16.4617 13.5 16.3125 13.5H6.1875C6.03832 13.5 5.89524 13.4407 5.78975 13.3352C5.68426 13.2298 5.625 13.0867 5.625 12.9375ZM5.625 8.4375C5.625 8.28832 5.68426 8.14524 5.78975 8.03975C5.89524 7.93426 6.03832 7.875 6.1875 7.875H16.3125C16.4617 7.875 16.6048 7.93426 16.7102 8.03975C16.8157 8.14524 16.875 8.28832 16.875 8.4375C16.875 8.58668 16.8157 8.72976 16.7102 8.83525C16.6048 8.94074 16.4617 9 16.3125 9H6.1875C6.03832 9 5.89524 8.94074 5.78975 8.83525C5.68426 8.72976 5.625 8.58668 5.625 8.4375ZM5.625 3.9375C5.625 3.78832 5.68426 3.64524 5.78975 3.53975C5.89524 3.43426 6.03832 3.375 6.1875 3.375H16.3125C16.4617 3.375 16.6048 3.43426 16.7102 3.53975C16.8157 3.64524 16.875 3.78832 16.875 3.9375C16.875 4.08668 16.8157 4.22976 16.7102 4.33525C16.6048 4.44074 16.4617 4.5 16.3125 4.5H6.1875C6.03832 4.5 5.89524 4.44074 5.78975 4.33525C5.68426 4.22976 5.625 4.08668 5.625 3.9375Z" fill="currentColor"/>
<path d="M1.92713 13.3481V12.8149H2.25C2.49413 12.8149 2.65837 12.6607 2.65837 12.4582C2.65837 12.2501 2.48063 12.1095 2.25225 12.1095C2.00138 12.1095 1.83937 12.2805 1.83262 12.4582H1.16888C1.18688 11.9329 1.5885 11.5729 2.27813 11.5729C2.93963 11.5706 3.35138 11.9002 3.35475 12.3637C3.35688 12.5227 3.30236 12.6772 3.20094 12.7997C3.09953 12.9221 2.95784 13.0045 2.80125 13.032V13.0691C2.97879 13.0823 3.14439 13.1635 3.26361 13.2957C3.38283 13.4279 3.4465 13.601 3.44138 13.779C3.44475 14.3786 2.87662 14.679 2.259 14.679C1.521 14.679 1.134 14.2627 1.125 13.7857H1.77975C1.78875 13.986 1.989 14.13 2.2545 14.1334C2.54025 14.1334 2.7315 13.9702 2.72925 13.7396C2.727 13.5202 2.55488 13.3481 2.2635 13.3481H1.926H1.92713ZM1.92263 8.06173H1.24313V8.02236C1.24313 7.56336 1.575 7.07286 2.32087 7.07286C2.97675 7.07286 3.40088 7.43961 3.40088 7.92336C3.40088 8.36098 3.11175 8.61748 2.86537 8.87736L2.26125 9.52086V9.55461H3.447V10.125H1.28588V9.68061L2.3625 8.56686C2.51775 8.40711 2.69212 8.22486 2.69212 7.99536C2.69212 7.79286 2.52675 7.63536 2.30738 7.63536C2.25673 7.6335 2.20624 7.64203 2.15902 7.66042C2.1118 7.67882 2.06884 7.70668 2.0328 7.74231C1.99675 7.77793 1.96838 7.82055 1.94943 7.86756C1.93049 7.91456 1.92136 7.96495 1.92263 8.01561V8.06173ZM2.8845 5.62498H2.17013V3.28948H2.13525L1.4625 3.76198V3.12411L2.17013 2.62573H2.8845V5.62498Z" fill="currentColor"/>
</svg>
