<svg width="16" height="17" viewBox="0 0 16 17" fill="currentColor" xmlns="http://www.w3.org/2000/svg">
<path d="M15.3712 10.5357L14.2016 9.53569C14.257 9.19641 14.2855 8.84998 14.2855 8.50355C14.2855 8.15712 14.257 7.81069 14.2016 7.47141L15.3712 6.47141C15.4595 6.39588 15.5226 6.29529 15.5523 6.18301C15.5819 6.07073 15.5767 5.95208 15.5373 5.84283L15.5212 5.7964C15.1992 4.89645 14.7171 4.06218 14.098 3.3339L14.0659 3.29641C13.9908 3.20811 13.8907 3.14463 13.7788 3.11435C13.6669 3.08406 13.5485 3.08839 13.4391 3.12676L11.9873 3.64283C11.4516 3.20355 10.8534 2.85712 10.207 2.61426L9.92659 1.0964C9.90544 0.982195 9.85004 0.877124 9.76775 0.795151C9.68546 0.713179 9.58017 0.658185 9.46588 0.637476L9.41767 0.628548C8.48731 0.460691 7.50874 0.460691 6.57838 0.628548L6.53017 0.637476C6.41587 0.658185 6.31059 0.713179 6.2283 0.795151C6.146 0.877124 6.0906 0.982195 6.06945 1.0964L5.78731 2.62141C5.14604 2.86431 4.54886 3.21056 4.01945 3.6464L2.55695 3.12676C2.4476 3.08809 2.32908 3.0836 2.21712 3.1139C2.10516 3.14421 2.00508 3.20786 1.93017 3.29641L1.89802 3.3339C1.27971 4.0627 0.797622 4.89683 0.474808 5.7964L0.458737 5.84283C0.37838 6.06605 0.444451 6.31605 0.624808 6.47141L1.80874 7.48212C1.75338 7.81783 1.72659 8.16069 1.72659 8.50176C1.72659 8.84462 1.75338 9.18748 1.80874 9.52141L0.624808 10.5321C0.536586 10.6076 0.473445 10.7082 0.44378 10.8205C0.414115 10.9328 0.419331 11.0514 0.458737 11.1607L0.474808 11.2071C0.798023 12.1071 1.27659 12.9375 1.89802 13.6696L1.93017 13.7071C2.00526 13.7954 2.10535 13.8589 2.21724 13.8892C2.32913 13.9195 2.44757 13.9151 2.55695 13.8768L4.01945 13.3571C4.55159 13.7946 5.14624 14.141 5.78731 14.3821L6.06945 15.9071C6.0906 16.0213 6.146 16.1264 6.2283 16.2084C6.31059 16.2903 6.41587 16.3453 6.53017 16.366L6.57838 16.375C7.51728 16.5437 8.47876 16.5437 9.41767 16.375L9.46588 16.366C9.58017 16.3453 9.68546 16.2903 9.76775 16.2084C9.85004 16.1264 9.90544 16.0213 9.92659 15.9071L10.207 14.3893C10.8531 14.147 11.4547 13.7995 11.9873 13.3607L13.4391 13.8768C13.5484 13.9154 13.667 13.9199 13.7789 13.8896C13.8909 13.8593 13.991 13.7957 14.0659 13.7071L14.098 13.6696C14.7194 12.9357 15.198 12.1071 15.5212 11.2071L15.5373 11.1607C15.6177 10.941 15.5516 10.691 15.3712 10.5357ZM12.9337 7.68212C12.9784 7.95176 13.0016 8.22855 13.0016 8.50533C13.0016 8.78212 12.9784 9.0589 12.9337 9.32855L12.8159 10.0446L14.1498 11.1857C13.9476 11.6516 13.6923 12.0926 13.3891 12.5L11.732 11.9125L11.1712 12.3732C10.7444 12.7232 10.2695 12.9982 9.75516 13.191L9.07481 13.4464L8.75516 15.1785C8.25083 15.2357 7.74165 15.2357 7.23731 15.1785L6.91767 13.4428L6.24267 13.1839C5.73374 12.991 5.26052 12.716 4.83731 12.3678L4.27659 11.9053L2.60874 12.4982C2.30517 12.0893 2.05159 11.6482 1.84802 11.1839L3.19624 10.0321L3.08017 9.31783C3.03731 9.05176 3.01409 8.77676 3.01409 8.50533C3.01409 8.23212 3.03552 7.95891 3.08017 7.69283L3.19624 6.97855L1.84802 5.82676C2.04981 5.36069 2.30517 4.9214 2.60874 4.51248L4.27659 5.10533L4.83731 4.64283C5.26052 4.29462 5.73374 4.01962 6.24267 3.82676L6.91945 3.5714L7.23909 1.83569C7.74088 1.77855 8.25338 1.77855 8.75695 1.83569L9.07659 3.56783L9.75695 3.82319C10.2695 4.01605 10.7462 4.29105 11.173 4.64105L11.7337 5.10176L13.3909 4.51426C13.6945 4.92319 13.948 5.36426 14.1516 5.82855L12.8177 6.96962L12.9337 7.68212ZM7.99981 5.18391C6.26409 5.18391 4.85695 6.59105 4.85695 8.32676C4.85695 10.0625 6.26409 11.4696 7.99981 11.4696C9.73552 11.4696 11.1427 10.0625 11.1427 8.32676C11.1427 6.59105 9.73552 5.18391 7.99981 5.18391ZM9.41409 9.74105C9.2286 9.92708 9.00815 10.0746 8.76543 10.1751C8.52271 10.2756 8.26252 10.3272 7.99981 10.3268C7.46588 10.3268 6.96409 10.1178 6.58552 9.74105C6.39949 9.55555 6.25198 9.3351 6.15146 9.09239C6.05094 8.84967 5.9994 8.58947 5.99981 8.32676C5.99981 7.79283 6.20874 7.29105 6.58552 6.91248C6.96409 6.53391 7.46588 6.32676 7.99981 6.32676C8.53374 6.32676 9.03552 6.53391 9.41409 6.91248C9.60012 7.09797 9.74764 7.31842 9.84816 7.56114C9.94868 7.80386 10.0002 8.06405 9.99981 8.32676C9.99981 8.86069 9.79088 9.36248 9.41409 9.74105Z" fill="currentColor"/>
</svg>