<svg width="17" height="17" viewBox="0 0 17 17" fill="currentColor"
  xmlns="http://www.w3.org/2000/svg">
  <path d="M15.7599 8.37668L8.85989 1.48025L8.39739 1.01775C8.29201 0.913062 8.1495 0.854309 8.00097 0.854309C7.85243 0.854309 7.70992 0.913062 7.60454 1.01775L0.242038 8.37668C0.134058 8.48424 0.0487196 8.61234 -0.00894006 8.75342C-0.0665997 8.8945 -0.0954118 9.0457 -0.093676 9.1981C-0.0865331 9.82668 0.436681 10.3285 1.06525 10.3285H1.82418V16.1445H14.1778V10.3285H14.9528C15.2581 10.3285 15.5456 10.2088 15.7617 9.99275C15.8681 9.8867 15.9524 9.76059 16.0097 9.62174C16.067 9.48288 16.0962 9.33404 16.0956 9.18382C16.0956 8.88025 15.976 8.59275 15.7599 8.37668ZM9.00097 14.8588H7.00097V11.216H9.00097V14.8588ZM12.892 9.04275V14.8588H10.1438V10.7874C10.1438 10.3927 9.82418 10.0731 9.42954 10.0731H6.57239C6.17775 10.0731 5.85811 10.3927 5.85811 10.7874V14.8588H3.10989V9.04275H1.39561L8.00275 2.44096L8.41525 2.85346L14.6081 9.04275H12.892Z" fill="currentColor"/>
</svg>
