<svg width="16" height="15" viewBox="0 0 16 15" fill="currentColor" xmlns="http://www.w3.org/2000/svg">
<path d="M13.5753 10.8606C13.1284 10.4133 12.6061 10.0482 12.0325 9.78208C12.8414 9.12672 13.3575 8.12672 13.3575 7.00529C13.3575 5.02672 11.7075 3.40351 9.7289 3.43386C7.78068 3.46422 6.21104 5.05172 6.21104 7.00529C6.21104 8.12672 6.7289 9.12672 7.53604 9.78208C6.9623 10.048 6.44 10.4132 5.99318 10.8606C5.01818 11.8374 4.46461 13.1267 4.4289 14.5017C4.42842 14.5208 4.43176 14.5397 4.43873 14.5575C4.44569 14.5752 4.45614 14.5914 4.46945 14.6051C4.48277 14.6187 4.49868 14.6295 4.51625 14.6369C4.53382 14.6443 4.55269 14.6482 4.57175 14.6481H5.57175C5.64854 14.6481 5.71282 14.5874 5.71461 14.5106C5.74854 13.4749 6.16818 12.5053 6.90568 11.7696C7.28307 11.3902 7.73197 11.0894 8.22638 10.8846C8.72079 10.6799 9.25091 10.5752 9.78604 10.5767C10.8735 10.5767 11.8968 10.9999 12.6664 11.7696C13.4021 12.5053 13.8218 13.4749 13.8575 14.5106C13.8593 14.5874 13.9235 14.6481 14.0003 14.6481H15.0003C15.0194 14.6482 15.0383 14.6443 15.0558 14.6369C15.0734 14.6295 15.0893 14.6187 15.1026 14.6051C15.1159 14.5914 15.1264 14.5752 15.1333 14.5575C15.1403 14.5397 15.1437 14.5208 15.1432 14.5017C15.1075 13.1267 14.5539 11.8374 13.5753 10.8606ZM9.78604 9.29101C9.17532 9.29101 8.60032 9.05351 8.16997 8.62136C7.95399 8.40709 7.78339 8.15151 7.66834 7.86986C7.55329 7.58822 7.49615 7.28629 7.50032 6.98208C7.50568 6.39636 7.73961 5.83029 8.14854 5.41065C8.57711 4.97136 9.15032 4.72672 9.76282 4.71958C10.3682 4.71422 10.9557 4.94993 11.3878 5.37315C11.8307 5.80708 12.0735 6.38743 12.0735 7.00529C12.0735 7.61601 11.836 8.18922 11.4039 8.62136C11.1919 8.83439 10.9397 9.00326 10.662 9.11821C10.3843 9.23315 10.0866 9.29188 9.78604 9.29101ZM5.31282 7.47672C5.29675 7.32136 5.28782 7.16422 5.28782 7.00529C5.28782 6.72136 5.31461 6.44458 5.36461 6.17493C5.37711 6.11065 5.34318 6.04458 5.28425 6.01779C5.0414 5.90886 4.81818 5.75886 4.62532 5.56958C4.39807 5.34923 4.21925 5.08394 4.10026 4.79062C3.98127 4.4973 3.92473 4.1824 3.93425 3.86601C3.95032 3.29279 4.18068 2.74815 4.58247 2.33743C5.02354 1.88565 5.61639 1.63922 6.24675 1.64636C6.8164 1.65172 7.36639 1.87136 7.78247 2.26065C7.92354 2.39279 8.04497 2.53922 8.14675 2.69636C8.18247 2.75172 8.25211 2.77493 8.31282 2.75351C8.62711 2.64458 8.95925 2.56779 9.30032 2.53208C9.40032 2.52136 9.45747 2.41422 9.41282 2.32493C8.83247 1.17672 7.64675 0.383862 6.27532 0.362434C4.29497 0.332077 2.64497 1.95529 2.64497 3.93208C2.64497 5.05351 3.16104 6.05351 3.96997 6.70886C3.40211 6.97136 2.8789 7.33386 2.42532 7.78743C1.44675 8.76422 0.893181 10.0535 0.857467 11.4303C0.85699 11.4494 0.860333 11.4683 0.867298 11.4861C0.874264 11.5038 0.884711 11.52 0.898024 11.5336C0.911338 11.5473 0.927248 11.5581 0.944817 11.5655C0.962386 11.5729 0.981259 11.5767 1.00032 11.5767H2.00211C2.0789 11.5767 2.14318 11.516 2.14497 11.4392C2.1789 10.4035 2.59854 9.43386 3.33604 8.69815C3.86104 8.17315 4.5039 7.80886 5.20568 7.63208C5.27532 7.61422 5.32175 7.54815 5.31282 7.47672Z" fill="currentColor"/>
</svg>