<svg width="14" height="15" viewBox="0 0 14 15" fill="currentColor"
  xmlns="http://www.w3.org/2000/svg">
  <path d="M13.187 11.9934C12.8501 11.1955 12.3613 10.4707 11.7477 9.85948C11.136 9.24646 10.4113 8.7577 9.61377 8.42019C9.60663 8.41662 9.59949 8.41483 9.59234 8.41126C10.7048 7.60769 11.4281 6.29876 11.4281 4.82197C11.4281 2.37555 9.44591 0.393402 6.99949 0.393402C4.55306 0.393402 2.57091 2.37555 2.57091 4.82197C2.57091 6.29876 3.29413 7.60769 4.40663 8.41305C4.39949 8.41662 4.39234 8.4184 4.3852 8.42198C3.5852 8.75947 2.86734 9.2434 2.25127 9.86126C1.63825 10.473 1.14949 11.1976 0.811987 11.9952C0.480419 12.776 0.301597 13.6131 0.285201 14.4613C0.284724 14.4803 0.288067 14.4993 0.295033 14.517C0.301998 14.5348 0.312445 14.5509 0.325759 14.5646C0.339072 14.5782 0.354982 14.5891 0.372551 14.5965C0.39012 14.6039 0.408993 14.6077 0.428058 14.6077H1.49949C1.57806 14.6077 1.64056 14.5452 1.64234 14.4684C1.67806 13.0898 2.23163 11.7988 3.2102 10.8202C4.2227 9.80769 5.56734 9.25055 6.99949 9.25055C8.43163 9.25055 9.77627 9.80769 10.7888 10.8202C11.7673 11.7988 12.3209 13.0898 12.3566 14.4684C12.3584 14.547 12.4209 14.6077 12.4995 14.6077H13.5709C13.59 14.6077 13.6089 14.6039 13.6264 14.5965C13.644 14.5891 13.6599 14.5782 13.6732 14.5646C13.6865 14.5509 13.697 14.5348 13.7039 14.517C13.7109 14.4993 13.7142 14.4803 13.7138 14.4613C13.6959 13.6077 13.5191 12.7773 13.187 11.9934ZM6.99949 7.8934C6.17984 7.8934 5.40841 7.57376 4.82806 6.9934C4.2477 6.41305 3.92806 5.64162 3.92806 4.82197C3.92806 4.00233 4.2477 3.2309 4.82806 2.65055C5.40841 2.07019 6.17984 1.75055 6.99949 1.75055C7.81913 1.75055 8.59056 2.07019 9.17091 2.65055C9.75127 3.2309 10.0709 4.00233 10.0709 4.82197C10.0709 5.64162 9.75127 6.41305 9.17091 6.9934C8.59056 7.57376 7.81913 7.8934 6.99949 7.8934Z" fill="currentColor"/>
</svg>