<svg width="14" height="17" viewBox="0 0 14 17" fill="currentColor" xmlns="http://www.w3.org/2000/svg">
<path d="M10.1433 4.92804V4.0709C10.1433 3.99232 10.079 3.92804 10.0004 3.92804H3.14328C3.0647 3.92804 3.00042 3.99232 3.00042 4.0709V4.92804C3.00042 5.00661 3.0647 5.0709 3.14328 5.0709H10.0004C10.079 5.0709 10.1433 5.00661 10.1433 4.92804ZM3.14328 6.49947C3.0647 6.49947 3.00042 6.56375 3.00042 6.64232V7.49947C3.00042 7.57804 3.0647 7.64232 3.14328 7.64232H6.42899C6.50756 7.64232 6.57185 7.57804 6.57185 7.49947V6.64232C6.57185 6.56375 6.50756 6.49947 6.42899 6.49947H3.14328ZM9.85756 8.5709C7.7272 8.5709 6.00042 10.2977 6.00042 12.428C6.00042 14.5584 7.7272 16.2852 9.85756 16.2852C11.9879 16.2852 13.7147 14.5584 13.7147 12.428C13.7147 10.2977 11.9879 8.5709 9.85756 8.5709ZM11.7772 14.3477C11.2647 14.8602 10.5826 15.1423 9.85756 15.1423C9.13256 15.1423 8.45042 14.8602 7.93792 14.3477C7.42542 13.8352 7.14328 13.153 7.14328 12.428C7.14328 11.703 7.42542 11.0209 7.93792 10.5084C8.45042 9.9959 9.13256 9.71375 9.85756 9.71375C10.5826 9.71375 11.2647 9.9959 11.7772 10.5084C12.2897 11.0209 12.5718 11.703 12.5718 12.428C12.5718 13.153 12.2897 13.8352 11.7772 14.3477ZM11.4468 11.0709H10.6558C10.6093 11.0709 10.5665 11.0923 10.5397 11.1298L9.40578 12.6977L8.99328 12.128C8.98006 12.1096 8.96262 12.0947 8.94242 12.0844C8.92222 12.0742 8.89986 12.0689 8.8772 12.0691H8.0897C7.97363 12.0691 7.90578 12.2013 7.97363 12.2959L9.29149 14.1191C9.34863 14.1977 9.4647 14.1977 9.52185 14.1191L11.5611 11.2977C11.6308 11.203 11.5629 11.0709 11.4468 11.0709ZM5.7147 14.5709H1.57185V1.99947H11.5718V8.14232C11.5718 8.2209 11.6361 8.28518 11.7147 8.28518H12.7147C12.7933 8.28518 12.8576 8.2209 12.8576 8.14232V1.28518C12.8576 0.96911 12.6022 0.713753 12.2861 0.713753H0.857561C0.54149 0.713753 0.286133 0.96911 0.286133 1.28518V15.2852C0.286133 15.6013 0.54149 15.8566 0.857561 15.8566H5.7147C5.79328 15.8566 5.85756 15.7923 5.85756 15.7138V14.7138C5.85756 14.6352 5.79328 14.5709 5.7147 14.5709Z" fill="currentColor"/>
</svg>