<svg width="16" height="14" viewBox="0 0 16 14" fill="currentColor" xmlns="http://www.w3.org/2000/svg">
<path d="M15.3934 0.785187H0.536272C0.220201 0.785187 -0.0351562 1.04054 -0.0351562 1.35662V12.7852C-0.0351562 13.1013 0.220201 13.3566 0.536272 13.3566H15.3934C15.7095 13.3566 15.9648 13.1013 15.9648 12.7852V1.35662C15.9648 1.04054 15.7095 0.785187 15.3934 0.785187ZM14.6791 12.0709H1.25056V2.0709H14.6791V12.0709ZM2.91306 10.6013C2.96842 10.6566 3.05949 10.6566 3.11484 10.6013L6.1952 7.5209L8.23806 9.56555C8.29342 9.6209 8.38449 9.6209 8.43984 9.56555L13.7434 4.2584C13.7988 4.20304 13.7988 4.11197 13.7434 4.05662L13.0863 3.39947C13.0594 3.37289 13.0232 3.35797 12.9854 3.35797C12.9476 3.35797 12.9113 3.37289 12.8845 3.39947L8.33984 7.9459L6.29699 5.90126C6.27014 5.87467 6.23388 5.85976 6.19609 5.85976C6.15831 5.85976 6.12205 5.87467 6.0952 5.90126L2.2577 9.74055C2.23111 9.7674 2.2162 9.80365 2.2162 9.84144C2.2162 9.87922 2.23111 9.91548 2.2577 9.94233L2.91306 10.6013Z" fill="currentColor"/>
</svg>