<svg width="16" height="15" viewBox="0 0 16 15" fill="currentColor"
  xmlns="http://www.w3.org/2000/svg">
  <path d="M5.17818 10.3415H6.22996C6.31389 10.3415 6.39425 10.304 6.4496 10.2397L7.9996 8.39147L9.5496 10.2397C9.60318 10.304 9.68353 10.3415 9.76925 10.3415H10.821C10.9425 10.3415 11.0085 10.2004 10.93 10.1075L8.74603 7.50218L10.9317 4.89682C11.0103 4.80397 10.9442 4.6629 10.8228 4.6629H9.77103C9.68711 4.6629 9.60675 4.7004 9.55139 4.76468L7.9996 6.6129L6.4496 4.76468C6.39603 4.7004 6.31568 4.6629 6.22996 4.6629H5.17818C5.05675 4.6629 4.99068 4.80397 5.06925 4.89682L7.25318 7.50218L5.06925 10.1075C5.05165 10.1282 5.04035 10.1535 5.03671 10.1805C5.03307 10.2074 5.03723 10.2348 5.0487 10.2594C5.06017 10.2841 5.07846 10.3049 5.10141 10.3194C5.12437 10.334 5.15101 10.3416 5.17818 10.3415Z" fill="currentColor"/>
  <path d="M14.5717 0.360138H1.42885C1.11278 0.360138 0.857422 0.615495 0.857422 0.931567V14.0744C0.857422 14.3905 1.11278 14.6459 1.42885 14.6459H14.5717C14.8878 14.6459 15.1431 14.3905 15.1431 14.0744V0.931567C15.1431 0.615495 14.8878 0.360138 14.5717 0.360138ZM13.8574 13.3601H2.14314V1.64585H13.8574V13.3601Z" fill="currentColor"/>
</svg>