<svg width="21" height="22" viewBox="0 0 21 22" fill="currentColor"
  xmlns="http://www.w3.org/2000/svg">
  <g clip-path="url(#clip0_3158_1337)">
    <path fill-rule="evenodd" clip-rule="evenodd" d="M18.375 3.125H2.625C2.2769 3.125 1.94306 3.26328 1.69692 3.50942C1.45078 3.75556 1.3125 4.0894 1.3125 4.4375V17.5625C1.3125 17.9106 1.45078 18.2444 1.69692 18.4906C1.94306 18.7367 2.2769 18.875 2.625 18.875H18.375C18.7231 18.875 19.0569 18.7367 19.3031 18.4906C19.5492 18.2444 19.6875 17.9106 19.6875 17.5625V4.4375C19.6875 4.0894 19.5492 3.75556 19.3031 3.50942C19.0569 3.26328 18.7231 3.125 18.375 3.125ZM2.625 1.8125C1.92881 1.8125 1.26113 2.08906 0.768845 2.58134C0.276562 3.07363 0 3.74131 0 4.4375L0 17.5625C0 18.2587 0.276562 18.9264 0.768845 19.4187C1.26113 19.9109 1.92881 20.1875 2.625 20.1875H18.375C19.0712 20.1875 19.7389 19.9109 20.2312 19.4187C20.7234 18.9264 21 18.2587 21 17.5625V4.4375C21 3.74131 20.7234 3.07363 20.2312 2.58134C19.7389 2.08906 19.0712 1.8125 18.375 1.8125H2.625Z" fill="currentColor"/>
    <path fill-rule="evenodd" clip-rule="evenodd" d="M9.84375 18.875V3.125H11.1562V18.875H9.84375Z" fill="currentColor"/>
  </g>
  <defs>
    <clipPath id="clip0_3158_1337">
      <rect width="21" height="21" fill="currentColor" transform="translate(0 0.5)"/>
    </clipPath>
  </defs>
</svg>
