<svg width="16" height="16" viewBox="0 0 16 16" fill="none"
  xmlns="http://www.w3.org/2000/svg">
  <g clip-path="url(#clip0_3204_1064)">
    <path d="M14.2854 8.10545H7.89259V1.7126C7.89259 1.63402 7.8283 1.56974 7.74973 1.56974H7.28545C6.34741 1.5682 5.41833 1.75216 4.55165 2.11103C3.68497 2.4699 2.89781 2.99659 2.23545 3.66081C1.58314 4.3111 1.06339 5.08193 0.705089 5.93045C0.332241 6.81052 0.140919 7.75681 0.142589 8.7126C0.141053 9.65063 0.32501 10.5797 0.683878 11.4464C1.04275 12.3131 1.56944 13.1002 2.23366 13.7626C2.88902 14.418 3.6533 14.934 4.5033 15.293C5.38337 15.6658 6.32966 15.8571 7.28545 15.8555C8.22348 15.857 9.15257 15.673 10.0192 15.3142C10.8859 14.9553 11.6731 14.4286 12.3354 13.7644C12.9908 13.109 13.5069 12.3447 13.8658 11.4947C14.2387 10.6147 14.43 9.66838 14.4283 8.7126V8.24831C14.4283 8.16974 14.364 8.10545 14.2854 8.10545ZM11.4587 12.9233C10.9057 13.472 10.2499 13.9061 9.52892 14.2009C8.80791 14.4957 8.03581 14.6453 7.25688 14.6412C5.68366 14.634 4.20509 14.018 3.09259 12.9055C1.97295 11.7858 1.35687 10.2965 1.35687 8.7126C1.35687 7.12867 1.97295 5.63938 3.09259 4.51974C4.06759 3.54474 5.32295 2.9501 6.6783 2.81438V9.31974H13.1837C13.0462 10.6822 12.4462 11.9447 11.4587 12.9233ZM15.8569 7.1126L15.8104 6.60903C15.6587 4.96438 14.9283 3.4126 13.7533 2.24117C12.5775 1.06759 11.0289 0.341284 9.37473 0.187596L8.86938 0.141167C8.78545 0.134025 8.71402 0.19831 8.71402 0.282239V7.14117C8.71402 7.21974 8.7783 7.28402 8.85688 7.28402L15.714 7.26617C15.7979 7.26617 15.864 7.19474 15.8569 7.1126ZM9.92473 6.07331V1.49117C11.0496 1.72661 12.0819 2.2837 12.8962 3.09474C13.7122 3.90902 14.2712 4.94474 14.5033 6.06081L9.92473 6.07331Z" fill="currentColor"/>
  </g>
  <defs>
    <clipPath id="clip0_3204_1064">
      <rect width="16" height="16" fill="white"/>
    </clipPath>
  </defs>
</svg>
