<svg width="14" height="13" viewBox="0 0 14 13" fill="currentColor"
  xmlns="http://www.w3.org/2000/svg">
  <path d="M12.9981 7.93185H0.571275C0.492704 7.93185 0.428418 7.99613 0.428418 8.0747V9.14613C0.428418 9.2247 0.492704 9.28899 0.571275 9.28899H11.3784L8.80163 12.5568C8.72842 12.6497 8.79449 12.789 8.91413 12.789H10.2088C10.2963 12.789 10.3784 12.7497 10.4338 12.6801L13.4481 8.85685C13.7427 8.48185 13.4766 7.93185 12.9981 7.93185ZM13.4284 3.71756H2.62127L5.19806 0.449703C5.27128 0.356846 5.2052 0.21756 5.08556 0.21756H3.79092C3.70342 0.21756 3.62128 0.256846 3.56592 0.326489L0.551632 4.1497C0.256989 4.5247 0.523061 5.0747 0.999846 5.0747H13.4284C13.507 5.0747 13.5713 5.01042 13.5713 4.93185V3.86042C13.5713 3.78185 13.507 3.71756 13.4284 3.71756Z" fill="currentColor"/>
</svg>
