<svg xmlns="http://www.w3.org/2000/svg" width="17" height="17" viewBox="0 0 17 17" fill="none">
  <path fill-rule="evenodd" clip-rule="evenodd" d="M12.354 4.64592C12.4006 4.69236 12.4375 4.74754 12.4627 4.80828C12.4879 4.86903 12.5009 4.93415 12.5009 4.99992C12.5009 5.06568 12.4879 5.13081 12.4627 5.19155C12.4375 5.2523 12.4006 5.30747 12.354 5.35392L5.35399 12.3539C5.2601 12.4478 5.13277 12.5005 4.99999 12.5005C4.86721 12.5005 4.73988 12.4478 4.64599 12.3539C4.5521 12.26 4.49936 12.1327 4.49936 11.9999C4.49936 11.8671 4.5521 11.7398 4.64599 11.6459L11.646 4.64592C11.6924 4.59935 11.7476 4.56241 11.8084 4.5372C11.8691 4.512 11.9342 4.49902 12 4.49902C12.0658 4.49902 12.1309 4.512 12.1916 4.5372C12.2524 4.56241 12.3075 4.59935 12.354 4.64592Z" fill="#DC3545"/>
  <path fill-rule="evenodd" clip-rule="evenodd" d="M4.64601 4.64592C4.59945 4.69236 4.5625 4.74754 4.5373 4.80828C4.51209 4.86903 4.49911 4.93415 4.49911 4.99992C4.49911 5.06568 4.51209 5.13081 4.5373 5.19155C4.5625 5.2523 4.59945 5.30747 4.64601 5.35392L11.646 12.3539C11.7399 12.4478 11.8672 12.5005 12 12.5005C12.1328 12.5005 12.2601 12.4478 12.354 12.3539C12.4479 12.26 12.5006 12.1327 12.5006 11.9999C12.5006 11.8671 12.4479 11.7398 12.354 11.6459L5.35401 4.64592C5.30756 4.59935 5.25239 4.56241 5.19164 4.5372C5.1309 4.512 5.06578 4.49902 5.00001 4.49902C4.93424 4.49902 4.86912 4.512 4.80838 4.5372C4.74763 4.56241 4.69245 4.59935 4.64601 4.64592Z" fill="#DC3545"/>
</svg>