<svg width="16" height="15" viewBox="0 0 16 15" fill="currentColor" xmlns="http://www.w3.org/2000/svg">
<path d="M14.3927 0.612031H10.7106C10.3999 0.612031 10.1231 0.824531 10.0499 1.13525C9.82665 2.0781 8.982 2.75489 7.99986 2.75489C7.01772 2.75489 6.17308 2.0781 5.94986 1.13525C5.91504 0.986215 5.83077 0.85337 5.71079 0.758359C5.59081 0.663347 5.44219 0.61177 5.28915 0.612031H1.607C1.39862 0.612031 1.19877 0.694811 1.05142 0.842161C0.904069 0.989511 0.821289 1.18936 0.821289 1.39775V5.89775C0.821289 6.10613 0.904069 6.30598 1.05142 6.45333C1.19877 6.60068 1.39862 6.68346 1.607 6.68346H2.94629V13.612C2.94629 13.8204 3.02907 14.0203 3.17642 14.1676C3.32377 14.315 3.52362 14.3977 3.732 14.3977H12.2677C12.4761 14.3977 12.676 14.315 12.8233 14.1676C12.9707 14.0203 13.0534 13.8204 13.0534 13.612V6.68346H14.3927C14.6011 6.68346 14.801 6.60068 14.9483 6.45333C15.0957 6.30598 15.1784 6.10613 15.1784 5.89775V1.39775C15.1784 1.18936 15.0957 0.989511 14.9483 0.842161C14.801 0.694811 14.6011 0.612031 14.3927 0.612031ZM13.8927 5.39775H11.7677V13.112H4.232V5.39775H2.107V1.89775H4.8445C5.34807 3.16917 6.58558 4.0406 7.99986 4.0406C9.41415 4.0406 10.6516 3.16917 11.1552 1.89775H13.8927V5.39775Z" fill="currentColor"/>
</svg>