<svg width="16" height="16" viewBox="0 0 16 16" fill="currentColor"
  xmlns="http://www.w3.org/2000/svg">
  <g clip-path="url(#clip0_3204_1070)">
    <path d="M7.9 0C3.53737 0 0 3.53737 0 7.9C0 12.2626 3.53737 15.8 7.9 15.8C12.2626 15.8 15.8 12.2626 15.8 7.9C15.8 3.53737 12.2626 0 7.9 0ZM7.9 14.4598C4.27799 14.4598 1.34018 11.522 1.34018 7.9C1.34018 4.27799 4.27799 1.34018 7.9 1.34018C11.522 1.34018 14.4598 4.27799 14.4598 7.9C14.4598 11.522 11.522 14.4598 7.9 14.4598Z" fill="currentColor"/>
    <path d="M7.0533 4.79643C7.0533 5.02092 7.14247 5.23621 7.30121 5.39494C7.45995 5.55368 7.67524 5.64286 7.89972 5.64286C8.12421 5.64286 8.3395 5.55368 8.49824 5.39494C8.65698 5.23621 8.74615 5.02092 8.74615 4.79643C8.74615 4.57194 8.65698 4.35665 8.49824 4.19791C8.3395 4.03918 8.12421 3.95 7.89972 3.95C7.67524 3.95 7.45995 4.03918 7.30121 4.19791C7.14247 4.35665 7.0533 4.57194 7.0533 4.79643ZM8.32294 6.77143H7.47651C7.39892 6.77143 7.33544 6.83491 7.33544 6.9125V11.7089C7.33544 11.7865 7.39892 11.85 7.47651 11.85H8.32294C8.40053 11.85 8.46401 11.7865 8.46401 11.7089V6.9125C8.46401 6.83491 8.40053 6.77143 8.32294 6.77143Z" fill="currentColor"/>
  </g>
  <defs>
    <clipPath id="clip0_3204_1070">
      <rect width="16" height="16" fill="currentColor"/>
    </clipPath>
  </defs>
</svg>
