<svg width="16" height="15" viewBox="0 0 16 15" fill="currentColor" xmlns="http://www.w3.org/2000/svg">
<path d="M14.9213 3.2937L11.4463 5.43477L8.11412 0.990129C8.10071 0.972241 8.08332 0.95772 8.06333 0.947719C8.04334 0.937717 8.02129 0.93251 7.99894 0.93251C7.97658 0.93251 7.95454 0.937717 7.93454 0.947719C7.91455 0.95772 7.89716 0.972241 7.88376 0.990129L4.5534 5.43477L1.07662 3.2937C0.97483 3.2312 0.842687 3.31513 0.858759 3.43477L2.22304 13.8026C2.24269 13.9437 2.36412 14.0526 2.50876 14.0526H13.4927C13.6355 14.0526 13.7588 13.9455 13.7766 13.8026L15.1409 3.43477C15.1552 3.31513 15.0248 3.2312 14.9213 3.2937ZM12.6713 12.8312H3.32662L2.3659 5.52049L4.86233 7.05799L7.99983 2.87227L11.1373 7.05799L13.6338 5.52049L12.6713 12.8312ZM7.99983 7.44549C6.8909 7.44549 5.98912 8.34727 5.98912 9.4562C5.98912 10.5651 6.8909 11.4669 7.99983 11.4669C9.10876 11.4669 10.0105 10.5651 10.0105 9.4562C10.0105 8.34727 9.10876 7.44549 7.99983 7.44549ZM7.99983 10.3187C7.52483 10.3187 7.13912 9.93299 7.13912 9.4562C7.13912 8.9812 7.52483 8.5937 7.99983 8.5937C8.47483 8.5937 8.86055 8.97942 8.86055 9.4562C8.86055 9.9312 8.47483 10.3187 7.99983 10.3187Z" fill="currentColor"/>
</svg>