<svg width="680" height="200" viewBox="0 0 680 200" fill="none" xmlns="http://www.w3.org/2000/svg">
<g clip-path="url(#clip0_16_10)">
<path d="M46.7949 122.576C44.6679 116.891 43.4883 110.722 43.4883 104.283C43.4883 75.452 66.8665 52.0545 95.7169 52.0545C119.23 52.0545 139.089 67.5819 145.644 88.949C157.362 78.1205 166.934 64.4301 172.813 47.5684C155.39 23.9389 127.352 8.56618 95.7169 8.56618C42.8502 8.56618 0 51.4357 0 104.302C7.3673 114.841 25.1571 121.396 46.7949 122.576Z" fill="url(#paint0_linear_16_10)"/>
<path d="M179.02 57.1594C174.572 86.4933 160.514 124.045 121.009 151.948C85.6231 176.951 51.3391 177.685 31.1902 174.978C48.2065 190.525 70.8499 200 95.7169 200C148.584 200 191.434 157.15 191.434 104.283C191.434 87.1507 186.909 71.0819 179.02 57.1594Z" fill="url(#paint1_linear_16_10)"/>
<path d="M121.009 137.987C196.113 84.927 175.191 0 175.191 0C172.232 118.786 25.5245 140.83 0 104.302C0 123.775 5.8397 141.893 15.8368 157.014C16.1655 157.072 65.8223 176.951 121.009 137.987Z" fill="url(#paint2_linear_16_10)"/>
</g>
<path d="M250.722 74.296C235.098 74.296 223.434 85.168 223.434 99.856C223.434 114.616 235.098 125.704 250.722 125.704C266.346 125.704 278.01 114.616 278.01 99.856C278.01 85.24 266.346 74.296 250.722 74.296ZM250.866 85.528C258.426 85.528 264.474 91.72 264.474 99.928C264.474 108.136 258.426 114.472 250.866 114.472C243.378 114.472 236.97 108.136 236.97 99.928C236.97 91.72 243.306 85.528 250.866 85.528Z" fill="black"/>
<path d="M320.201 92.08L327.833 82.936C322.793 77.608 314.945 74.296 307.457 74.296C292.049 74.296 280.457 85.24 280.457 99.784C280.457 114.616 291.761 125.704 306.953 125.704C314.441 125.704 322.505 122.032 327.905 116.344L320.201 108.064C316.673 111.664 311.849 113.968 307.673 113.968C299.897 113.968 293.993 107.776 293.993 99.64C293.993 91.576 299.897 85.456 307.673 85.456C312.065 85.456 316.889 88.048 320.201 92.08Z" fill="black"/>
<path d="M333.549 74.656V125.128H374.085V114.616H346.725V105.112L370.773 105.04V94.6H346.725V85.168H373.365V74.656H333.549Z" fill="black"/>
<path d="M419.215 125.128H433.255L412.087 74.656H398.551L376.879 125.128H390.415L393.943 116.2H415.759L419.215 125.128ZM397.903 106.12L404.959 88.12L411.871 106.12H397.903Z" fill="black"/>
<path d="M437.822 74.656V125.128H450.134V94.888L473.03 125.128H484.55V74.656H472.31V105.04L449.414 74.656H437.822Z" fill="black"/>
<path d="M490.176 74.728V82.36H506.088V125.128H514.584V82.36H530.568V74.728H490.176Z" fill="black"/>
<path d="M537.847 74.728V125.128H574.711V117.496H546.343V103.6H570.967V96.04H546.343V82.36H573.847V74.728H537.847Z" fill="black"/>
<path d="M621.601 88.48L626.569 82.288C621.673 77.464 614.545 74.512 607.417 74.512C592.513 74.512 580.921 85.528 580.921 99.856C580.921 114.328 592.369 125.488 607.129 125.488C614.257 125.488 621.529 122.248 626.641 117.208L621.601 111.592C617.785 115.264 612.601 117.568 607.561 117.568C597.481 117.568 589.561 109.72 589.561 99.784C589.561 89.848 597.481 82.072 607.561 82.072C612.673 82.072 617.929 84.52 621.601 88.48Z" fill="black"/>
<path d="M635.3 74.728V125.128H643.796V104.248H670.508V125.128H679.004V74.728H670.508V96.616H643.796V74.728H635.3Z" fill="black"/>
<defs>
<linearGradient id="paint0_linear_16_10" x1="273.411" y1="65.5403" x2="-39.1249" y2="65.5403" gradientUnits="userSpaceOnUse">
<stop stop-color="#FFFF00"/>
<stop offset="0.5054" stop-color="#FFA100"/>
<stop offset="1" stop-color="#FF5100"/>
</linearGradient>
<linearGradient id="paint1_linear_16_10" x1="36.0949" y1="33.6562" x2="158.942" y2="180.374" gradientUnits="userSpaceOnUse">
<stop stop-color="#80D8FF"/>
<stop offset="1" stop-color="#0D47A1"/>
</linearGradient>
<linearGradient id="paint2_linear_16_10" x1="0.0413575" y1="162.191" x2="204.748" y2="47.6286" gradientUnits="userSpaceOnUse">
<stop offset="0.00511509" stop-color="#00A36E"/>
<stop offset="1" stop-color="#BEE191"/>
</linearGradient>
<clipPath id="clip0_16_10">
<rect width="191.434" height="200" fill="white"/>
</clipPath>
</defs>
</svg>
