<svg xmlns="http://www.w3.org/2000/svg" width="110" height="60" viewBox="0 0 110 60" fill="none">
    <path d="M56.0984 0H42.1193L21.354 36.4731L34.7337 59.9946H48.7128L35.3331 36.4731L56.0984 0Z" fill="#6198B7"/>
    <path d="M15.5686 11.2496H2.39229L10.0187 24.715L0 41.247H13.1817L23.1951 24.715L15.5686 11.2496Z" fill="#6198B7"/>
    <path d="M57.8882 39.6039V21.5037H59.5941V29.5566H70.1808V21.5037H71.8993V39.6039H70.1808V31.112H59.5941V39.6039H57.8882Z" fill="#6198B7"/>
    <path d="M75.2985 39.6039V21.5037H81.6832C85.2204 21.5037 87.4783 23.5733 87.4783 26.797V26.8221C87.4783 29.3684 86.0107 31.2876 83.6023 31.9148L87.9925 39.6039H85.9856L81.8211 32.1907C81.7208 32.1907 81.5703 32.1907 81.4574 32.1907H77.0045V39.6039H75.2985ZM77.0045 30.6729H81.5452C84.1668 30.6729 85.7096 29.2681 85.7096 26.8597V26.8346C85.7096 24.4514 84.1041 23.034 81.4825 23.034H77.0045V30.6729Z" fill="#6198B7"/>
    <path d="M90.2755 39.6039V21.5037H92.2448L98.9555 37.4464H99.0308L105.742 21.5037H107.711V39.6039H106.105V24.7273H106.018L99.7332 39.6039H98.2406L91.9688 24.7273H91.881V39.6039H90.2755Z" fill="#6198B7"/>
</svg>