<svg width="80" height="80" viewBox="0 0 80 80" fill="none" xmlns="http://www.w3.org/2000/svg">
<g opacity="0.8">
<path d="M33.8373 8.75C33.3545 8.74877 32.8833 8.60117 32.4861 8.32668C32.0889 8.05219 31.7842 7.66371 31.6123 7.2125L28.7498 0H1.4248V17.65H78.5748V8.75H33.8373ZM46.3873 52.7C47.9549 49.087 48.2214 45.0423 47.1414 41.2548C46.0614 37.4674 43.7016 34.1716 40.4642 31.9288C37.2268 29.686 33.3119 28.635 29.3865 28.9548C25.4611 29.2746 21.768 30.9455 18.9363 33.6828C16.1046 36.4201 14.3095 40.0544 13.8569 43.9667C13.4042 47.8791 14.3219 51.8273 16.4537 55.1389C18.5855 58.4505 21.7995 60.9205 25.5482 62.1283C29.2968 63.336 33.3483 63.2068 37.0123 61.7625C38.1855 61.2979 39.3046 60.7069 40.3498 60C43.0176 58.1925 45.1125 55.6595 46.3873 52.7ZM35.8623 58.85C32.4311 60.201 28.6037 60.1335 25.2222 58.6625C21.8407 57.1915 19.182 54.4375 17.8311 51.0062C16.4801 47.575 16.5475 43.7476 18.0185 40.3661C19.4895 36.9846 22.2436 34.3259 25.6748 32.975C27.3689 32.2978 29.1808 31.9646 31.0049 31.9946C32.829 32.0247 34.629 32.4174 36.2998 33.15C38.8227 34.2466 40.9639 36.0665 42.4527 38.3797C43.9415 40.6929 44.7112 43.3956 44.6643 46.1461C44.6175 48.8966 43.7563 51.5715 42.1896 53.8327C40.6229 56.0939 38.4211 57.8399 35.8623 58.85Z" fill="white"/>
<path d="M41.2501 41.7625C40.7112 40.3747 39.9024 39.1077 38.8703 38.0348C37.8382 36.9619 36.6034 36.1046 35.2376 35.5125C33.8085 34.896 32.2689 34.577 30.7126 34.575C29.2908 34.5743 27.8821 34.8459 26.5626 35.375C24.4785 36.1958 22.6847 37.6161 21.4079 39.4564C20.1311 41.2967 19.4287 43.4743 19.3894 45.7138C19.3502 47.9533 19.976 50.1542 21.1875 52.0381C22.3991 53.9219 24.1421 55.4042 26.1962 56.2975C28.2502 57.1908 30.5229 57.4549 32.7271 57.0565C34.9312 56.6581 36.9677 55.6151 38.5791 54.0593C40.1904 52.5035 41.3042 50.5048 41.7796 48.316C42.2551 46.1272 42.0708 43.8465 41.2501 41.7625ZM42.9501 69L40.5376 62.9125C39.7078 63.3937 38.8428 63.8116 37.9501 64.1625C37.0577 64.5191 36.138 64.8033 35.2001 65.0124L36.3501 67.9125L36.4376 68.1375V68.2374L40.1376 77.5C40.8751 79.3624 42.6376 80.4125 44.1376 79.825C44.4797 79.6763 44.7854 79.4551 45.0336 79.1767C45.2818 78.8983 45.4665 78.5693 45.5751 78.2125C45.8573 77.2926 45.8131 76.3035 45.4501 75.4125L42.9501 69Z" fill="white"/>
<path d="M1.4248 67.2001H33.2998L32.6123 65.45C31.9998 65.45 31.3623 65.525 30.7873 65.525C26.1306 65.5362 21.6212 63.8932 18.0632 60.889C14.5051 57.8848 12.1296 53.7146 11.3602 49.1218C10.5908 44.5291 11.4774 39.8124 13.8621 35.8125C16.2468 31.8127 19.9744 28.7898 24.3806 27.2827C28.7867 25.7756 33.5848 25.8822 37.9196 27.5837C42.2544 29.2851 45.8441 32.4707 48.0486 36.5725C50.2532 40.6744 50.9294 45.4259 49.9566 49.9799C48.9838 54.5339 46.4254 58.5944 42.7373 61.4375L44.9998 67.2001H78.5748V20.2375H1.4248V67.2001Z" fill="white"/>
</g>
</svg>
