<svg width="80" height="80" viewBox="0 0 80 80" fill="none" xmlns="http://www.w3.org/2000/svg">
<g opacity="0.8">
<path opacity="0.8" d="M38.68 73.3013H1.2125C0.891358 73.3013 0.583332 73.1739 0.356016 72.947C0.1287 72.7202 0.000662149 72.4124 0 72.0913L0 27.0713C0 26.4013 0.54375 25.8575 1.2125 25.8575H38.6813C39.3512 25.8575 39.895 26.4013 39.895 27.0713V72.0913C39.8947 72.2505 39.863 72.4081 39.8017 72.5551C39.7405 72.7021 39.6509 72.8356 39.5381 72.9479C39.4253 73.0603 39.2914 73.1493 39.1442 73.21C38.997 73.2706 38.8392 73.3016 38.68 73.3013ZM2.42375 70.8775H37.4675V28.2838H2.42375V70.8775Z" fill="white"/>
<path d="M27.9 60.9551H13.845C13.6826 60.9603 13.5208 60.9328 13.3692 60.8743C13.2176 60.8157 13.0793 60.7273 12.9626 60.6142C12.8458 60.5012 12.753 60.3658 12.6896 60.2162C12.6262 60.0666 12.5936 59.9057 12.5936 59.7432C12.5936 59.5807 12.6262 59.4198 12.6896 59.2702C12.753 59.1206 12.8458 58.9852 12.9626 58.8722C13.0793 58.7591 13.2176 58.6707 13.3692 58.6121C13.5208 58.5536 13.6826 58.5261 13.845 58.5313H27.9C28.0624 58.5261 28.2242 58.5536 28.3758 58.6121C28.5274 58.6707 28.6657 58.7591 28.7824 58.8722C28.8991 58.9852 28.992 59.1206 29.0554 59.2702C29.1188 59.4198 29.1514 59.5807 29.1514 59.7432C29.1514 59.9057 29.1188 60.0666 29.0554 60.2162C28.992 60.3658 28.8991 60.5012 28.7824 60.6142C28.6657 60.7273 28.5274 60.8157 28.3758 60.8743C28.2242 60.9328 28.0624 60.9603 27.9 60.9551ZM27.9 52.4063H13.845C13.6826 52.4115 13.5208 52.3841 13.3692 52.3255C13.2176 52.2669 13.0793 52.1785 12.9626 52.0655C12.8458 51.9524 12.753 51.8171 12.6896 51.6674C12.6262 51.5178 12.5936 51.357 12.5936 51.1945C12.5936 51.0319 12.6262 50.8711 12.6896 50.7215C12.753 50.5718 12.8458 50.4365 12.9626 50.3234C13.0793 50.2104 13.2176 50.122 13.3692 50.0634C13.5208 50.0048 13.6826 49.9774 13.845 49.9826H27.9C28.0624 49.9774 28.2242 50.0048 28.3758 50.0634C28.5274 50.122 28.6657 50.2104 28.7824 50.3234C28.8991 50.4365 28.992 50.5718 29.0554 50.7215C29.1188 50.8711 29.1514 51.0319 29.1514 51.1945C29.1514 51.357 29.1188 51.5178 29.0554 51.6674C28.992 51.8171 28.8991 51.9524 28.7824 52.0655C28.6657 52.1785 28.5274 52.2669 28.3758 52.3255C28.2242 52.3841 28.0624 52.4115 27.9 52.4063ZM27.9 43.8588H13.845C13.5303 43.8487 13.2319 43.7166 13.0129 43.4904C12.7939 43.2643 12.6714 42.9618 12.6714 42.647C12.6714 42.3321 12.7939 42.0296 13.0129 41.8035C13.2319 41.5773 13.5303 41.4452 13.845 41.4351H27.9C28.0624 41.4299 28.2242 41.4573 28.3758 41.5159C28.5274 41.5745 28.6657 41.6629 28.7824 41.7759C28.8991 41.889 28.992 42.0243 29.0554 42.174C29.1188 42.3236 29.1514 42.4844 29.1514 42.647C29.1514 42.8095 29.1188 42.9703 29.0554 43.1199C28.992 43.2696 28.8991 43.4049 28.7824 43.518C28.6657 43.631 28.5274 43.7194 28.3758 43.778C28.2242 43.8366 28.0624 43.864 27.9 43.8588Z" fill="white"/>
<path d="M56.7725 28.2188C51.2113 28.2188 46.6888 23.3926 46.6888 17.4601C46.6888 11.5276 51.2113 6.70007 56.7725 6.70007C62.3313 6.70007 66.8538 11.5276 66.8538 17.4601C66.8538 23.3926 62.3313 28.2188 56.7725 28.2188ZM56.7725 9.12257C52.5488 9.12257 49.1138 12.8613 49.1138 17.4601C49.1138 22.0563 52.5488 25.7951 56.7725 25.7951C60.995 25.7951 64.43 22.0563 64.43 17.4601C64.43 12.8613 60.995 9.12257 56.7725 9.12257ZM78.7875 55.4801H38.6863C38.3647 55.4801 38.0563 55.3523 37.8289 55.1249C37.6015 54.8976 37.4738 54.5891 37.4738 54.2676C37.4738 53.946 37.6015 53.6376 37.8289 53.4102C38.0563 53.1828 38.3647 53.0551 38.6863 53.0551H77.545C77.1088 44.2251 71.92 36.4951 64.2688 33.3013C62.65 35.5613 59.8163 36.9738 56.7588 36.9738C53.705 36.9738 50.8813 35.5613 49.2713 33.3013C45.4325 34.9051 42.0613 37.7563 39.7063 41.4113C39.532 41.6817 39.2576 41.8718 38.9432 41.9397C38.6288 42.0077 38.3004 41.948 38.03 41.7738C37.7596 41.5996 37.5696 41.3251 37.5016 41.0108C37.4336 40.6964 37.4933 40.3679 37.6675 40.0976C40.4975 35.7113 44.65 32.3613 49.365 30.6638C49.642 30.564 49.9458 30.5686 50.2197 30.6768C50.4935 30.7849 50.7185 30.9892 50.8525 31.2513C51.88 33.2551 54.2 34.5476 56.7588 34.5476C59.3238 34.5476 61.6525 33.2526 62.6925 31.2463C62.8278 30.9855 63.0532 30.7826 63.3268 30.6755C63.6004 30.5683 63.9036 30.5642 64.18 30.6638C73.6425 34.0838 80 43.5688 80 54.2676C80 54.5891 79.8723 54.8976 79.6449 55.1249C79.4175 55.3523 79.1091 55.4801 78.7875 55.4801Z" fill="white"/>
</g>
</svg>
