<svg width="80" height="80" viewBox="0 0 80 80" fill="none" xmlns="http://www.w3.org/2000/svg">
<g opacity="0.8" clip-path="url(#clip0_2770_5446)">
<path d="M58.4876 49.25L58.6251 49.0625C62.8184 43.6028 65.0414 36.885 64.9324 30.0017C64.8235 23.1183 62.3891 16.4743 58.0251 11.15C55.5017 8.04985 52.3882 5.48126 48.865 3.59306C45.3418 1.70485 41.4789 0.534562 37.5001 0.15C36.4126 0 35.4126 0 34.4001 0C26.8415 0.0160111 19.5581 2.8381 13.9621 7.91911C8.36606 13.0001 4.85605 19.9781 4.1126 27.5C3.5825 32.9032 4.50368 38.35 6.78108 43.2785C9.05849 48.2069 12.6096 52.4384 17.0681 55.5364C21.5266 58.6344 26.731 60.4867 32.1442 60.9022C37.5575 61.3177 42.9835 60.2813 47.8626 57.9C47.8626 57.9 47.8626 57.9 47.9376 57.9L48.2126 57.775C50.1864 56.74 52.043 55.4953 53.7501 54.0625C55.4964 52.6319 57.0846 51.0185 58.4876 49.25ZM50.2376 49.725C47.7211 51.8768 44.8006 53.5049 41.647 54.5138C38.4934 55.5228 35.1702 55.8923 31.872 55.6007C28.5738 55.3092 25.3669 54.3625 22.4392 52.816C19.5115 51.2695 16.9218 49.1544 14.8218 46.5944C12.7218 44.0345 11.1538 41.0813 10.2095 37.9078C9.26515 34.7342 8.96359 31.4042 9.32243 28.1126C9.68128 24.8211 10.6933 21.6342 12.2993 18.7387C13.9052 15.8432 16.0728 13.2973 18.6751 11.25C23.7935 7.22322 30.2864 5.36318 36.7606 6.06899C43.2348 6.77481 49.1744 9.99025 53.3048 15.0254C57.4353 20.0605 59.4276 26.514 58.8542 33.0013C58.2807 39.4885 55.1873 45.4925 50.2376 49.725Z" fill="white"/>
<path d="M51.6372 16.3875C48.8517 12.9849 45.1193 10.485 40.9125 9.20437C36.7057 7.9237 32.2135 7.91976 28.0045 9.19305C23.7955 10.4663 20.0587 12.9596 17.2672 16.3574C14.4757 19.7552 12.7549 23.9047 12.3225 28.2808C11.8902 32.6569 12.7657 37.0629 14.8384 40.9412C16.911 44.8196 20.0875 47.9959 23.966 50.0683C27.8445 52.1406 32.2506 53.0158 36.6267 52.5831C41.0028 52.1504 45.1521 50.4293 48.5497 47.6375C50.8049 45.7887 52.6737 43.5137 54.0494 40.9425C55.4251 38.3713 56.2807 35.5542 56.5675 32.6522C56.8542 29.7502 56.5663 26.8201 55.7204 24.0294C54.8744 21.2386 53.487 18.6419 51.6372 16.3875ZM47.6872 41.7125C47.5674 41.8314 47.4249 41.9248 47.268 41.9871C47.1112 42.0494 46.9434 42.0793 46.7747 42.075L21.6747 41.525C21.3332 41.5027 21.0132 41.3502 20.7807 41.0991C20.5482 40.848 20.4208 40.5173 20.4247 40.175C20.4926 37.5708 21.3724 35.0529 22.9411 32.9731C24.5099 30.8933 26.6893 29.3557 29.1747 28.575C29.0439 28.4692 28.9187 28.3565 28.7997 28.2375C27.3264 26.6875 26.5259 24.6178 26.5727 22.4798C26.6195 20.3418 27.51 18.3091 29.0497 16.825C30.6034 15.3548 32.6736 14.5555 34.8122 14.6C36.4071 14.6342 37.956 15.1406 39.2629 16.0554C40.5699 16.9701 41.5761 18.252 42.1542 19.7388C42.7323 21.2256 42.8564 22.8505 42.5107 24.4078C42.165 25.9652 41.3651 27.385 40.2122 28.4875C40.0935 28.6029 39.9683 28.7114 39.8372 28.8125C42.3017 29.6792 44.4292 31.3028 45.9154 33.4513C47.4016 35.5998 48.1705 38.1632 48.1122 40.775C48.112 40.9525 48.074 41.1279 48.0007 41.2896C47.9274 41.4512 47.8205 41.5954 47.6872 41.7125ZM73.9747 69.4875L59.6122 51.9875C58.3563 53.4579 56.9716 54.8133 55.4747 56.0375C53.9758 57.2646 52.3741 58.3603 50.6872 59.3125L64.9997 76.8125C66.1981 78.3168 67.8587 79.3843 69.7247 79.85C70.4479 80.0454 71.2064 80.0715 71.9413 79.9262C72.6762 79.781 73.3677 79.4683 73.9622 79.0125L74.3372 78.7125C76.7497 76.775 76.5622 72.6375 73.9747 69.4875Z" fill="white"/>
<path d="M35.9123 30.75H32.7373C30.4281 30.7685 28.2002 31.605 26.4494 33.1109C24.6987 34.6167 23.5384 36.6945 23.1748 38.975L45.4373 39.4625C45.1821 37.0998 44.0738 34.9112 42.3203 33.3073C40.5668 31.7033 38.2884 30.7941 35.9123 30.75ZM34.3748 28.0625H34.7123C36.1016 28.0278 37.4245 27.4613 38.4083 26.4798C39.3922 25.4983 39.9618 24.1766 39.9998 22.7875C40.0368 21.3573 39.5047 19.9709 38.5204 18.9327C37.536 17.8944 36.1799 17.2892 34.7498 17.25H34.6248C33.1893 17.2168 31.7995 17.7553 30.761 18.7469C30.2468 19.2379 29.8343 19.8253 29.5471 20.4757C29.26 21.1261 29.1037 21.8267 29.0873 22.5375C29.0709 23.2483 29.1946 23.9553 29.4515 24.6183C29.7083 25.2812 30.0932 25.8871 30.5842 26.4013C31.5758 27.4398 32.9393 28.0418 34.3748 28.075V28.0625Z" fill="white"/>
</g>
<defs>
<clipPath id="clip0_2770_5446">
<rect width="80" height="80" fill="white"/>
</clipPath>
</defs>
</svg>
