<svg width="80" height="80" viewBox="0 0 80 80" fill="none" xmlns="http://www.w3.org/2000/svg">
<g opacity="0.8">
<path d="M5.27539 0H74.7254V41.1875H5.27539V0ZM22.7379 66.6H21.7129C18.0895 66.6011 14.6044 67.991 11.9746 70.4836C9.34487 72.9762 7.77047 76.3819 7.57539 80H36.8629C36.6709 76.383 35.0992 72.9773 32.4714 70.4845C29.8437 67.9916 26.36 66.6013 22.7379 66.6Z" fill="white"/>
<path d="M28.5604 58.7136C28.6724 55.2084 25.9216 52.276 22.4164 52.164C18.9112 52.0521 15.9788 54.8028 15.8668 58.308C15.7549 61.8132 18.5056 64.7456 22.0108 64.8576C25.516 64.9696 28.4484 62.2188 28.5604 58.7136Z" fill="white"/>
<path d="M60.5756 66.6001H59.5381C55.916 66.6014 52.4323 67.9917 49.8046 70.4846C47.1768 72.9774 45.6051 76.3831 45.4131 80.0001H74.7006C74.5086 76.3831 72.9369 72.9774 70.3091 70.4846C67.6814 67.9917 64.1977 66.6014 60.5756 66.6001Z" fill="white"/>
<path d="M60.0502 64.8377C63.5572 64.8377 66.4002 61.9947 66.4002 58.4877C66.4002 54.9807 63.5572 52.1377 60.0502 52.1377C56.5432 52.1377 53.7002 54.9807 53.7002 58.4877C53.7002 61.9947 56.5432 64.8377 60.0502 64.8377Z" fill="white"/>
</g>
</svg>
