<svg width="80" height="80" viewBox="0 0 80 80" fill="none" xmlns="http://www.w3.org/2000/svg">
<g opacity="0.8">
<path opacity="0.8" d="M0 69.3376H37.3125V23.9876H0V69.3376ZM12.1625 37.9876H27.1625C27.5056 37.9876 27.8347 38.1239 28.0773 38.3665C28.3199 38.6092 28.4562 38.9382 28.4562 39.2813C28.4562 39.6245 28.3199 39.9535 28.0773 40.1962C27.8347 40.4388 27.5056 40.5751 27.1625 40.5751H12.1625C11.8194 40.5751 11.4903 40.4388 11.2477 40.1962C11.0051 39.9535 10.8687 39.6245 10.8687 39.2813C10.8687 38.9382 11.0051 38.6092 11.2477 38.3665C11.4903 38.1239 11.8194 37.9876 12.1625 37.9876ZM12.1625 47.1001H27.1625C27.5056 47.1001 27.8347 47.2364 28.0773 47.479C28.3199 47.7217 28.4562 48.0507 28.4562 48.3938C28.4562 48.737 28.3199 49.066 28.0773 49.3087C27.8347 49.5513 27.5056 49.6876 27.1625 49.6876H12.1625C11.8194 49.6876 11.4903 49.5513 11.2477 49.3087C11.0051 49.066 10.8687 48.737 10.8687 48.3938C10.8687 48.0507 11.0051 47.7217 11.2477 47.479C11.4903 47.2364 11.8194 47.1001 12.1625 47.1001ZM12.1625 56.2001H27.1625C27.5056 56.2001 27.8347 56.3364 28.0773 56.579C28.3199 56.8217 28.4562 57.1507 28.4562 57.4938C28.4562 57.837 28.3199 58.166 28.0773 58.4087C27.8347 58.6513 27.5056 58.7876 27.1625 58.7876H12.1625C11.8194 58.7876 11.4903 58.6513 11.2477 58.4087C11.0051 58.166 10.8687 57.837 10.8687 57.4938C10.8687 57.1507 11.0051 56.8217 11.2477 56.579C11.4903 56.3364 11.8194 56.2001 12.1625 56.2001ZM57.875 29.3251C62.6 29.3251 66.4625 25.1501 66.4625 19.9876C66.4625 14.8251 62.6 10.6626 57.875 10.6626C53.15 10.6626 49.3 14.8376 49.3 20.0001C49.3 25.1626 53.1375 29.3251 57.875 29.3251ZM65.85 29.3251C64.906 30.5424 63.696 31.5277 62.3126 32.2055C60.9293 32.8832 59.4092 33.2356 57.8687 33.2356C56.3283 33.2356 54.8082 32.8832 53.4249 32.2055C52.0415 31.5277 50.8315 30.5424 49.8875 29.3251C45.8003 31.0681 42.3208 33.9823 39.8875 37.7001V50.3626H80C79.8578 45.8803 78.4548 41.529 75.952 37.8079C73.4491 34.0868 69.9479 31.1467 65.85 29.3251Z" fill="white"/>
</g>
</svg>
