<svg width="80" height="80" viewBox="0 0 80 80" fill="none" xmlns="http://www.w3.org/2000/svg">
<g opacity="0.8">
<path d="M75.325 70.2V57.2C75.3267 56.9938 75.287 56.7894 75.2082 56.599C75.1293 56.4085 75.0129 56.2358 74.866 56.0912C74.7191 55.9466 74.5446 55.833 74.3528 55.7572C74.1611 55.6814 73.9561 55.645 73.75 55.65H41.55V42.5C41.5628 42.1973 41.679 41.9081 41.8791 41.6806C42.0793 41.4532 42.3514 41.3012 42.65 41.25C45.6398 40.8276 48.4761 39.663 50.9 37.8625C51.1261 37.6772 51.41 37.5769 51.7023 37.5792C51.9946 37.5815 52.2769 37.6861 52.5 37.875L55.425 40.725L57.5 38.6L54.65 35.8C54.4161 35.5867 54.2718 35.2926 54.2463 34.9771C54.2208 34.6616 54.3159 34.3481 54.5125 34.1C56.3245 31.6835 57.502 28.8514 57.9375 25.8625C57.9715 25.5553 58.1181 25.2717 58.3489 25.0662C58.5797 24.8608 58.8785 24.7481 59.1875 24.75H63.2625V21.775H59.2625C58.9554 21.7772 58.6582 21.6663 58.4277 21.4634C58.1971 21.2605 58.0494 20.9799 58.0125 20.675C57.5869 17.6818 56.4132 14.8443 54.6 12.425C54.4091 12.1801 54.3161 11.873 54.3393 11.5634C54.3624 11.2537 54.4999 10.9638 54.725 10.75L57.5 7.85L55.35 5.75L52.5 8.625C52.2851 8.85707 51.9901 8.99902 51.6746 9.02221C51.3591 9.04541 51.0466 8.94814 50.8 8.75C48.4028 6.94524 45.5927 5.76793 42.625 5.325C42.3179 5.29101 42.0342 5.14446 41.8287 4.91362C41.6233 4.68278 41.5106 4.38402 41.5125 4.075V0.0125L38.4875 0V4.0125C38.4897 4.3196 38.3788 4.61676 38.1759 4.84731C37.9731 5.07786 37.6924 5.22566 37.3875 5.2625C34.4017 5.72098 31.5783 6.91996 29.175 8.75C28.9302 8.94091 28.623 9.03386 28.3134 9.01076C28.0038 8.98765 27.7138 8.85014 27.5 8.625L24.5875 5.775L22.5 7.9L25.35 10.7C25.5858 10.9116 25.7324 11.2048 25.7603 11.5204C25.7881 11.836 25.6951 12.1504 25.5 12.4C23.681 14.8125 22.5026 17.6465 22.075 20.6375C22.0264 20.9384 21.8756 21.2134 21.6479 21.416C21.4202 21.6187 21.1295 21.7366 20.825 21.75H16.75V24.725H20.75C21.0538 24.7406 21.3432 24.8594 21.5705 25.0616C21.7977 25.2639 21.9492 25.5375 22 25.8375C22.4255 28.8269 23.5993 31.6604 25.4125 34.075C25.6034 34.3199 25.6964 34.627 25.6733 34.9366C25.6502 35.2462 25.5127 35.5362 25.2875 35.75L22.5 38.65L24.625 40.7375L27.5 37.875C27.715 37.6429 28.0099 37.501 28.3254 37.4778C28.6409 37.4546 28.9534 37.5519 29.2 37.75C31.6152 39.5538 34.4422 40.7267 37.425 41.1625C37.7322 41.1965 38.0158 41.343 38.2213 41.5739C38.4267 41.8047 38.5394 42.1035 38.5375 42.4125V46.1625H38.4625V55.575H6.25001C5.83893 55.575 5.44468 55.7383 5.154 56.029C4.86331 56.3197 4.70001 56.7139 4.70001 57.125V70.125C3.56857 70.4939 2.60581 71.2543 1.98479 72.2695C1.36376 73.2847 1.1252 74.4881 1.31197 75.6634C1.49875 76.8387 2.09862 77.9089 3.00375 78.6815C3.90889 79.4542 5.05994 79.8787 6.25001 79.8787C7.44008 79.8787 8.59113 79.4542 9.49627 78.6815C10.4014 77.9089 11.0013 76.8387 11.188 75.6634C11.3748 74.4881 11.1363 73.2847 10.5152 72.2695C9.89421 71.2543 8.93146 70.4939 7.80001 70.125V58.75H38.45V70.075C37.2923 70.3484 36.2699 71.0256 35.5666 71.9849C34.8633 72.9443 34.5251 74.123 34.6126 75.3094C34.7002 76.4957 35.2079 77.6119 36.0445 78.4576C36.8812 79.3033 37.9919 79.823 39.1772 79.9233C40.3625 80.0237 41.5448 79.6982 42.5117 79.0052C43.4786 78.3123 44.1668 77.2973 44.4526 76.1426C44.7384 74.9879 44.6032 73.7691 44.0712 72.7051C43.5392 71.6411 42.6453 70.8017 41.55 70.3375V58.75H72.225V70.2125C71.0936 70.5814 70.1308 71.3418 69.5098 72.357C68.8888 73.3722 68.6502 74.5756 68.837 75.7509C69.0238 76.9262 69.6236 77.9964 70.5287 78.769C71.4339 79.5417 72.5849 79.9662 73.775 79.9662C74.9651 79.9662 76.1161 79.5417 77.0213 78.769C77.9264 77.9964 78.5263 76.9262 78.713 75.7509C78.8998 74.5756 78.6613 73.3722 78.0402 72.357C77.4192 71.3418 76.4565 70.5814 75.325 70.2125V70.2ZM28.75 23.25C28.75 21.025 29.4098 18.8499 30.646 16.9998C31.8821 15.1498 33.6392 13.7078 35.6948 12.8564C37.7505 12.0049 40.0125 11.7821 42.1948 12.2162C44.3771 12.6502 46.3816 13.7217 47.955 15.295C49.5283 16.8684 50.5998 18.8729 51.0338 21.0552C51.4679 23.2375 51.2451 25.4995 50.3937 27.5552C49.5422 29.6109 48.1002 31.3679 46.2502 32.604C44.4001 33.8402 42.2251 34.5 40 34.5C37.0163 34.5 34.1548 33.3147 32.0451 31.2049C29.9353 29.0952 28.75 26.2337 28.75 23.25Z" fill="white"/>
<path d="M39.9998 14.6001C38.2895 14.6026 36.6184 15.112 35.1975 16.064C33.7767 17.0159 32.6699 18.3677 32.0172 19.9485C31.3644 21.5293 31.1949 23.2682 31.53 24.9453C31.8652 26.6224 32.69 28.1625 33.9003 29.371C35.1105 30.5795 36.6518 31.402 38.3294 31.7348C40.007 32.0675 41.7455 31.8955 43.3254 31.2405C44.9052 30.5854 46.2555 29.4767 47.2054 28.0545C48.1553 26.6323 48.6623 24.9604 48.6623 23.2501C48.659 20.9548 47.7449 18.7547 46.1207 17.1329C44.4965 15.511 42.2951 14.6001 39.9998 14.6001Z" fill="white"/>
</g>
</svg>
