<svg width="80" height="80" viewBox="0 0 80 80" fill="none" xmlns="http://www.w3.org/2000/svg">
<g opacity="0.8" clip-path="url(#clip0_2770_5914)">
<path d="M60.8754 32.2749C57.0964 32.2774 53.4029 33.4001 50.2618 35.5011C47.1207 37.6022 44.6729 40.5873 43.2279 44.0791C41.7828 47.571 41.4054 51.4128 42.1433 55.1191C42.8811 58.8254 44.7011 62.2298 47.3733 64.902C50.0455 67.5742 53.4499 69.3942 57.1562 70.1321C60.8625 70.8699 64.7043 70.4925 68.1962 69.0474C71.688 67.6024 74.6731 65.1547 76.7742 62.0135C78.8752 58.8724 79.9979 55.1789 80.0004 51.3999C79.9971 46.3287 77.9811 41.4661 74.3952 37.8801C70.8092 34.2942 65.9466 32.2782 60.8754 32.2749ZM59.6254 34.9874C59.6254 34.6443 59.7617 34.3152 60.0043 34.0726C60.247 33.83 60.576 33.6937 60.9191 33.6937C61.2623 33.6937 61.5913 33.83 61.834 34.0726C62.0766 34.3152 62.2129 34.6443 62.2129 34.9874V36.7249C62.2129 37.068 62.0766 37.3971 61.834 37.6397C61.5913 37.8823 61.2623 38.0187 60.9191 38.0187C60.576 38.0187 60.247 37.8823 60.0043 37.6397C59.7617 37.3971 59.6254 37.068 59.6254 36.7249V34.9874ZM46.2504 52.8874H44.4879C44.1564 52.8874 43.8384 52.7557 43.604 52.5213C43.3696 52.2869 43.2379 51.9689 43.2379 51.6374C43.2379 51.3059 43.3696 50.9879 43.604 50.7535C43.8384 50.5191 44.1564 50.3874 44.4879 50.3874H46.2504C46.5935 50.3874 46.9226 50.5237 47.1652 50.7663C47.4078 51.009 47.5441 51.338 47.5441 51.6812C47.5441 52.0243 47.4078 52.3533 47.1652 52.596C46.9226 52.8386 46.5935 52.9749 46.2504 52.9749V52.8874ZM62.1754 68.1874C62.1754 68.5305 62.0391 68.8596 61.7965 69.1022C61.5538 69.3449 61.2248 69.4812 60.8816 69.4812C60.5385 69.4812 60.2095 69.3449 59.9668 69.1022C59.7242 68.8596 59.5879 68.5305 59.5879 68.1874V66.4374C59.5879 66.0943 59.7242 65.7652 59.9668 65.5226C60.2095 65.28 60.5385 65.1437 60.8816 65.1437C61.2248 65.1437 61.5538 65.28 61.7965 65.5226C62.0391 65.7652 62.1754 66.0943 62.1754 66.4374V68.1874ZM60.8754 54.9999C60.2119 54.9968 59.5642 54.7968 59.0146 54.4251C58.4649 54.0535 58.0379 53.527 57.7879 52.9124H52.8504C52.5073 52.9124 52.1782 52.7761 51.9356 52.5335C51.693 52.2908 51.5566 51.9618 51.5566 51.6187C51.5566 51.2755 51.693 50.9465 51.9356 50.7038C52.1782 50.4612 52.5073 50.3249 52.8504 50.3249H57.7879C57.9499 49.9169 58.193 49.5459 58.5024 49.2344C58.8117 48.9229 59.181 48.6773 59.5879 48.5124V41.4874C59.5879 41.1443 59.7242 40.8152 59.9668 40.5726C60.2095 40.33 60.5385 40.1937 60.8816 40.1937C61.2248 40.1937 61.5538 40.33 61.7965 40.5726C62.0391 40.8152 62.1754 41.1443 62.1754 41.4874V48.4499C62.8932 48.7499 63.4858 49.2878 63.8537 49.9733C64.2217 50.6587 64.3424 51.4499 64.1958 52.2139C64.0492 52.9779 63.644 53.6682 63.0485 54.1687C62.4529 54.6692 61.7032 54.9495 60.9254 54.9624L60.8754 54.9999ZM76.7629 52.9499H75.0254C74.6823 52.9499 74.3532 52.8136 74.1106 52.571C73.868 52.3283 73.7316 51.9993 73.7316 51.6562C73.7316 51.313 73.868 50.984 74.1106 50.7413C74.3532 50.4987 74.6823 50.3624 75.0254 50.3624H76.7629C77.106 50.3624 77.4351 50.4987 77.6777 50.7413C77.9203 50.984 78.0566 51.313 78.0566 51.6562C78.0566 51.9993 77.9203 52.3283 77.6777 52.571C77.4351 52.8136 77.106 52.9499 76.7629 52.9499Z" fill="white"/>
<path d="M31.4824 25.8208C35.2168 22.0864 35.2168 16.0318 31.4824 12.2974C27.748 8.56298 21.6934 8.56298 17.959 12.2974C14.2246 16.0318 14.2246 22.0864 17.959 25.8208C21.6934 29.5552 27.748 29.5552 31.4824 25.8208Z" fill="white"/>
<path d="M33.525 28.2625C32.4812 29.5731 31.1479 30.6243 29.6299 31.3334C28.1118 32.0426 26.4501 32.3905 24.775 32.3499C23.1018 32.3782 21.4442 32.0248 19.928 31.3165C18.4119 30.6083 17.0771 29.5638 16.025 28.2625C11.5161 29.948 7.59764 32.9137 4.75083 36.7953C1.90402 40.6769 0.252818 45.3054 0 50.1124H39.2375C39.5148 45.2001 41.4695 40.5318 44.775 36.8875C41.9399 32.9832 38.0315 29.9867 33.525 28.2625ZM60.8875 49.8999C60.5898 49.8975 60.2981 49.9837 60.0495 50.1475C59.8009 50.3114 59.6067 50.5455 59.4916 50.8201C59.3765 51.0947 59.3458 51.3973 59.4033 51.6895C59.4608 51.9816 59.6039 52.25 59.8144 52.4606C60.0249 52.6711 60.2933 52.8142 60.5855 52.8717C60.8776 52.9292 61.1802 52.8984 61.4548 52.7833C61.7294 52.6682 61.9636 52.4741 62.1274 52.2255C62.2913 51.9769 62.3775 51.6852 62.375 51.3875C62.375 50.9929 62.2183 50.6146 61.9393 50.3356C61.6604 50.0567 61.282 49.8999 60.8875 49.8999Z" fill="white"/>
</g>
<defs>
<clipPath id="clip0_2770_5914">
<rect width="80" height="80" fill="white"/>
</clipPath>
</defs>
</svg>
