<svg width="80" height="80" viewBox="0 0 80 80" fill="none" xmlns="http://www.w3.org/2000/svg">
<g opacity="0.8" clip-path="url(#clip0_2770_4367)">
<path d="M12.6125 25.8001C9.26732 25.8067 6.06124 27.1394 3.69701 29.5059C1.33278 31.8725 0.00330224 35.0799 0 38.4251L0 50.1376H4.275V66.3876C4.27335 66.7607 4.34561 67.1304 4.48762 67.4754C4.62963 67.8204 4.83858 68.1339 5.1024 68.3977C5.36621 68.6615 5.67967 68.8705 6.02468 69.0125C6.36969 69.1545 6.73941 69.2268 7.1125 69.2251H8.75C9.50255 69.2251 10.2243 68.9261 10.7564 68.394C11.2885 67.8619 11.5875 67.1401 11.5875 66.3876V50.1376H13.6875V66.3876C13.6859 66.7596 13.7577 67.1283 13.8989 67.4725C14.0402 67.8167 14.248 68.1296 14.5105 68.3933C14.773 68.6569 15.085 68.8661 15.4285 69.0089C15.7721 69.1516 16.1405 69.2251 16.5125 69.2251H18.125C18.4987 69.2267 18.869 69.1546 19.2147 69.0127C19.5604 68.8708 19.8747 68.6621 20.1395 68.3984C20.4043 68.1348 20.6144 67.8214 20.7578 67.4764C20.9012 67.1313 20.975 66.7613 20.975 66.3876V50.1376H25.25V38.4251C25.25 36.7661 24.923 35.1234 24.2878 33.5908C23.6525 32.0583 22.7215 30.666 21.5478 29.4935C20.3741 28.321 18.9809 27.3913 17.4477 26.7575C15.9145 26.1238 14.2715 25.7985 12.6125 25.8001ZM12.625 24.1376C13.9468 24.1376 15.2388 23.7451 16.3373 23.01C17.4358 22.2749 18.2913 21.2302 18.7954 20.0083C19.2995 18.7864 19.4295 17.4424 19.1689 16.1465C18.9083 14.8507 18.2688 13.6614 17.3315 12.7294C16.3942 11.7974 15.2014 11.1646 13.9041 10.9113C12.6068 10.658 11.2635 10.7956 10.0445 11.3065C8.82547 11.8175 7.78559 12.6789 7.05667 13.7815C6.32774 14.8841 5.94257 16.1783 5.95 17.5001C5.96318 19.2629 6.67185 20.9492 7.92188 22.1922C9.1719 23.4352 10.8622 24.1344 12.625 24.1376ZM77.9 13.3751H33.1125C32.5577 13.3751 32.0254 13.5946 31.632 13.9857C31.2385 14.3769 31.0158 14.9078 31.0125 15.4626V44.8001C31.0125 45.3571 31.2337 45.8912 31.6276 46.285C32.0214 46.6788 32.5555 46.9001 33.1125 46.9001H48.525L44.0625 59.2876C44.0148 59.4164 43.9932 59.5534 43.9989 59.6906C44.0046 59.8278 44.0374 59.9625 44.0956 60.0869C44.1537 60.2113 44.236 60.323 44.3376 60.4154C44.4392 60.5077 44.5581 60.579 44.6875 60.6251C44.8077 60.6427 44.9298 60.6427 45.05 60.6251C45.265 60.6238 45.4743 60.5558 45.649 60.4304C45.8237 60.305 45.9551 60.1284 46.025 59.9251L50.7375 46.8376H54.4875V58.9001C54.4875 59.1786 54.5981 59.4456 54.795 59.6426C54.992 59.8395 55.259 59.9501 55.5375 59.9501C55.816 59.9501 56.083 59.8395 56.28 59.6426C56.4769 59.4456 56.5875 59.1786 56.5875 58.9001V46.9001H60L65 60.0001C65.0778 60.1987 65.2136 60.3694 65.3897 60.4898C65.5659 60.6101 65.7742 60.6747 65.9875 60.6751C66.1159 60.6719 66.2428 60.6466 66.3625 60.6001C66.4911 60.5516 66.6088 60.4781 66.7088 60.3838C66.8088 60.2894 66.889 60.1762 66.9448 60.0506C67.0006 59.925 67.031 59.7895 67.034 59.6521C67.037 59.5147 67.0127 59.378 66.9625 59.2501L62.2875 46.8876H77.9125C78.4651 46.8843 78.9942 46.6633 79.385 46.2726C79.7757 45.8818 79.9967 45.3527 80 44.8001V15.4626C79.9967 14.9078 79.774 14.3769 79.3805 13.9857C78.9871 13.5946 78.4548 13.3751 77.9 13.3751Z" fill="white"/>
</g>
<defs>
<clipPath id="clip0_2770_4367">
<rect width="80" height="80" fill="white"/>
</clipPath>
</defs>
</svg>
