<svg width="80" height="80" viewBox="0 0 80 80" fill="none" xmlns="http://www.w3.org/2000/svg">
<g opacity="0.8">
<path d="M76.4625 51.2499C76.1456 51.2507 75.8402 51.1311 75.6082 50.9153C75.3761 50.6994 75.2347 50.4035 75.2125 50.0874C74.9518 47.3724 74.0197 44.7649 72.5 42.4999C72.3188 42.2501 72.2364 41.942 72.2687 41.6351C72.301 41.3282 72.4457 41.044 72.675 40.8374L75.2875 38.3374L73.575 36.5249L71.0125 38.9499C70.7887 39.1765 70.4869 39.3092 70.1686 39.3208C69.8504 39.3324 69.5397 39.2221 69.3 39.0124C67.1757 37.2929 64.6595 36.125 61.975 35.6124C61.6769 35.5672 61.4052 35.4158 61.21 35.1861C61.0147 34.9564 60.9091 34.6639 60.9125 34.3624L61.025 30.7749L58.525 30.6999L58.425 34.2374C58.4258 34.5543 58.3062 34.8597 58.0903 35.0917C57.8745 35.3238 57.5786 35.4652 57.2625 35.4874C54.5409 35.771 51.933 36.7291 49.675 38.2749C49.4242 38.4597 49.1134 38.5442 48.8036 38.5118C48.4938 38.4795 48.2072 38.3326 48 38.0999L45.5 35.4749L44.7875 36.1499C44.7216 36.2298 44.646 36.3012 44.5625 36.3624L43.7125 37.1749L46.1375 39.7499C46.3519 39.9811 46.471 40.2847 46.471 40.5999C46.471 40.9152 46.3519 41.2188 46.1375 41.4499C44.4272 43.5658 43.2715 46.0749 42.775 48.7499C42.7103 49.0387 42.5534 49.2987 42.3278 49.4904C42.1023 49.6821 41.8205 49.7951 41.525 49.8124L37.925 49.6999V52.1999L41.4625 52.2999C41.7774 52.2989 42.0811 52.4168 42.3128 52.63C42.5446 52.8432 42.6873 53.136 42.7125 53.4499C42.9941 56.1759 43.9523 58.7883 45.5 61.0499C45.6812 61.2997 45.7636 61.6078 45.7313 61.9147C45.699 62.2217 45.5543 62.5058 45.325 62.7124L42.7 65.2124L44.4 67.0249L46.9875 64.6124C47.2084 64.3911 47.5043 64.2606 47.8167 64.2467C48.1291 64.2329 48.4353 64.3366 48.675 64.5374C50.8007 66.2623 53.3223 67.4308 56.0125 67.9374C56.3106 67.9826 56.5823 68.134 56.7775 68.3637C56.9728 68.5934 57.0784 68.886 57.075 69.1874L56.975 72.7874L59.475 72.8624L59.575 69.3249C59.5879 69.0122 59.7121 68.7143 59.9253 68.4851C60.1384 68.2559 60.4265 68.1104 60.7375 68.0749C63.463 67.7912 66.0749 66.8332 68.3375 65.2874C68.5888 65.1077 68.8977 65.0274 69.2047 65.062C69.5117 65.0966 69.795 65.2437 70 65.4749L72.5 68.0874L74.3125 66.3749L71.8875 63.8749C71.6695 63.6431 71.5482 63.3369 71.5482 63.0187C71.5482 62.7005 71.6695 62.3942 71.8875 62.1624C73.513 60.0146 74.5822 57.4983 75 54.8374C75.0541 54.5252 75.2194 54.2432 75.4652 54.0433C75.711 53.8434 76.0208 53.7392 76.3375 53.7499L79.925 53.8499L80 51.3499L76.4625 51.2499ZM58.9 61.5624H58.5125C56.5847 61.4924 54.7211 60.8514 53.1581 59.7206C51.5952 58.5898 50.4033 57.0203 49.7337 55.2111C49.0642 53.4019 48.9471 51.4346 49.3973 49.5588C49.8475 47.683 50.8447 45.9831 52.2625 44.6749C54.1652 42.9275 56.681 42.0021 59.2625 42.0999C60.5405 42.1514 61.7958 42.4542 62.9568 42.9909C64.1178 43.5276 65.1616 44.2878 66.0287 45.2281C66.8958 46.1683 67.5692 47.2702 68.0104 48.4707C68.4516 49.6712 68.6519 50.9469 68.6 52.2249C68.4909 54.729 67.4229 57.0951 65.6172 58.8334C63.8115 60.5716 61.4064 61.5487 58.9 61.5624ZM23.75 24.6499C25.4806 24.6499 27.1723 24.1367 28.6112 23.1753C30.0502 22.2138 31.1717 20.8472 31.8339 19.2484C32.4962 17.6495 32.6695 15.8902 32.3319 14.1929C31.9943 12.4955 31.1609 10.9364 29.9372 9.71272C28.7135 8.48901 27.1544 7.65566 25.457 7.31804C23.7597 6.98041 22.0004 7.15369 20.4015 7.81596C18.8027 8.47823 17.4361 9.59974 16.4746 11.0387C15.5132 12.4776 15 14.1693 15 15.8999C15 18.2206 15.9219 20.4461 17.5628 22.0871C19.2038 23.728 21.4294 24.6499 23.75 24.6499Z" fill="white"/>
<path d="M43.4625 40.7373L40.9625 38.0248C40.8396 37.908 40.7417 37.7675 40.6748 37.6117C40.6079 37.4559 40.5734 37.2881 40.5734 37.1186C40.5734 36.949 40.6079 36.7812 40.6748 36.6254C40.7417 36.4696 40.8396 36.3291 40.9625 36.2123L42.0375 35.1998C39.4171 31.9943 36.0043 29.5295 32.1375 28.0498C31.1135 29.2973 29.82 30.2964 28.3542 30.9719C26.8885 31.6474 25.2886 31.9817 23.675 31.9498C22.0594 31.9827 20.4574 31.6489 18.9895 30.9734C17.5216 30.2978 16.2259 29.2983 15.2 28.0498C10.9213 29.6791 7.20756 32.5153 4.50942 36.2141C1.81127 39.913 0.244758 44.3155 0 48.8873H35.3V48.3873C35.3192 48.049 35.4672 47.731 35.7136 47.4985C35.9601 47.266 36.2862 47.1368 36.625 47.1373L40.45 47.2498C41.0303 44.9069 42.0527 42.6965 43.4625 40.7373Z" fill="white"/>
</g>
</svg>
