<svg width="12" height="14" viewBox="0 0 12 14" fill="none"
    xmlns="http://www.w3.org/2000/svg">
    <path d="M11.3536 3.50938L7.99111 0.146875C7.89736 0.053125 7.7708 0 7.63799 0H1.00049C0.723926 0 0.500488 0.223437 0.500488 0.5V13.5C0.500488 13.7766 0.723926 14 1.00049 14H11.0005C11.2771 14 11.5005 13.7766 11.5005 13.5V3.86406C11.5005 3.73125 11.4474 3.60313 11.3536 3.50938ZM10.3474 4.09375H7.40674V1.15313L10.3474 4.09375ZM10.3755 12.875H1.62549V1.125H6.34424V4.5C6.34424 4.67405 6.41338 4.84097 6.53645 4.96404C6.65952 5.08711 6.82644 5.15625 7.00049 5.15625H10.3755V12.875Z" fill="#6C757D"/>
</svg>
