<svg width="21" height="22" viewBox="0 0 21 22" fill="none"
    xmlns="http://www.w3.org/2000/svg">
    <path fill-rule="evenodd" clip-rule="evenodd" d="M7.875 14.2812C7.875 14.1072 7.94414 13.9403 8.06721 13.8172C8.19028 13.6941 8.3572 13.625 8.53125 13.625H12.4688C12.6428 13.625 12.8097 13.6941 12.9328 13.8172C13.0559 13.9403 13.125 14.1072 13.125 14.2812C13.125 14.4553 13.0559 14.6222 12.9328 14.7453C12.8097 14.8684 12.6428 14.9375 12.4688 14.9375H8.53125C8.3572 14.9375 8.19028 14.8684 8.06721 14.7453C7.94414 14.6222 7.875 14.4553 7.875 14.2812ZM5.25 10.3438C5.25 10.1697 5.31914 10.0028 5.44221 9.87971C5.56528 9.75664 5.7322 9.6875 5.90625 9.6875H15.0938C15.2678 9.6875 15.4347 9.75664 15.5578 9.87971C15.6809 10.0028 15.75 10.1697 15.75 10.3438C15.75 10.5178 15.6809 10.6847 15.5578 10.8078C15.4347 10.9309 15.2678 11 15.0938 11H5.90625C5.7322 11 5.56528 10.9309 5.44221 10.8078C5.31914 10.6847 5.25 10.5178 5.25 10.3438ZM2.625 6.40625C2.625 6.2322 2.69414 6.06528 2.81721 5.94221C2.94028 5.81914 3.1072 5.75 3.28125 5.75H17.7188C17.8928 5.75 18.0597 5.81914 18.1828 5.94221C18.3059 6.06528 18.375 6.2322 18.375 6.40625C18.375 6.5803 18.3059 6.74722 18.1828 6.87029C18.0597 6.99336 17.8928 7.0625 17.7188 7.0625H3.28125C3.1072 7.0625 2.94028 6.99336 2.81721 6.87029C2.69414 6.74722 2.625 6.5803 2.625 6.40625Z" fill="#4176a4"/>
</svg>
