<svg width="14" height="12" viewBox="0 0 14 12" fill="none"
    xmlns="http://www.w3.org/2000/svg">
    <path d="M13.5 4.93561H11.8125V3.16061C11.8125 2.88405 11.5891 2.66061 11.3125 2.66061H6.39062L4.55781 0.907483C4.53449 0.885651 4.50382 0.873382 4.47188 0.873108H0.5C0.223437 0.873108 0 1.09655 0 1.37311V10.6231C0 10.8997 0.223437 11.1231 0.5 11.1231H11.4062C11.6094 11.1231 11.7937 10.9997 11.8703 10.8106L13.9641 5.62311C13.9875 5.56373 14 5.49967 14 5.43561C14 5.15905 13.7766 4.93561 13.5 4.93561ZM1.125 1.99811H4.07031L5.93906 3.78561H10.6875V4.93561H2.71875C2.51562 4.93561 2.33125 5.05905 2.25469 5.24811L1.125 8.04811V1.99811ZM11.0516 9.99811H1.48438L3.09844 5.99811H12.6672L11.0516 9.99811Z" fill="#6C757D"/>
</svg>
