<svg width="14" height="14" viewBox="0 0 14 14" fill="currentColor" xmlns="http://www.w3.org/2000/svg">
<path fill-rule="evenodd" clip-rule="evenodd" d="M4.375 10.0625C4.375 9.94647 4.42109 9.83519 4.50314 9.75314C4.58519 9.67109 4.69647 9.625 4.8125 9.625H12.6875C12.8035 9.625 12.9148 9.67109 12.9969 9.75314C13.0789 9.83519 13.125 9.94647 13.125 10.0625C13.125 10.1785 13.0789 10.2898 12.9969 10.3719C12.9148 10.4539 12.8035 10.5 12.6875 10.5H4.8125C4.69647 10.5 4.58519 10.4539 4.50314 10.3719C4.42109 10.2898 4.375 10.1785 4.375 10.0625ZM4.375 6.5625C4.375 6.44647 4.42109 6.33519 4.50314 6.25314C4.58519 6.17109 4.69647 6.125 4.8125 6.125H12.6875C12.8035 6.125 12.9148 6.17109 12.9969 6.25314C13.0789 6.33519 13.125 6.44647 13.125 6.5625C13.125 6.67853 13.0789 6.78981 12.9969 6.87186C12.9148 6.95391 12.8035 7 12.6875 7H4.8125C4.69647 7 4.58519 6.95391 4.50314 6.87186C4.42109 6.78981 4.375 6.67853 4.375 6.5625ZM4.375 3.0625C4.375 2.94647 4.42109 2.83519 4.50314 2.75314C4.58519 2.67109 4.69647 2.625 4.8125 2.625H12.6875C12.8035 2.625 12.9148 2.67109 12.9969 2.75314C13.0789 2.83519 13.125 2.94647 13.125 3.0625C13.125 3.17853 13.0789 3.28981 12.9969 3.37186C12.9148 3.45391 12.8035 3.5 12.6875 3.5H4.8125C4.69647 3.5 4.58519 3.45391 4.50314 3.37186C4.42109 3.28981 4.375 3.17853 4.375 3.0625ZM1.75 3.9375C1.98206 3.9375 2.20462 3.84531 2.36872 3.68122C2.53281 3.51712 2.625 3.29456 2.625 3.0625C2.625 2.83044 2.53281 2.60788 2.36872 2.44378C2.20462 2.27969 1.98206 2.1875 1.75 2.1875C1.51794 2.1875 1.29538 2.27969 1.13128 2.44378C0.967187 2.60788 0.875 2.83044 0.875 3.0625C0.875 3.29456 0.967187 3.51712 1.13128 3.68122C1.29538 3.84531 1.51794 3.9375 1.75 3.9375ZM1.75 7.4375C1.98206 7.4375 2.20462 7.34531 2.36872 7.18122C2.53281 7.01712 2.625 6.79456 2.625 6.5625C2.625 6.33044 2.53281 6.10788 2.36872 5.94378C2.20462 5.77969 1.98206 5.6875 1.75 5.6875C1.51794 5.6875 1.29538 5.77969 1.13128 5.94378C0.967187 6.10788 0.875 6.33044 0.875 6.5625C0.875 6.79456 0.967187 7.01712 1.13128 7.18122C1.29538 7.34531 1.51794 7.4375 1.75 7.4375ZM1.75 10.9375C1.98206 10.9375 2.20462 10.8453 2.36872 10.6812C2.53281 10.5171 2.625 10.2946 2.625 10.0625C2.625 9.83044 2.53281 9.60788 2.36872 9.44378C2.20462 9.27969 1.98206 9.1875 1.75 9.1875C1.51794 9.1875 1.29538 9.27969 1.13128 9.44378C0.967187 9.60788 0.875 9.83044 0.875 10.0625C0.875 10.2946 0.967187 10.5171 1.13128 10.6812C1.29538 10.8453 1.51794 10.9375 1.75 10.9375Z" fill="#1A5E83"/>
</svg>
