<svg width="16" height="16" viewBox="0 0 16 16" fill="currentColor" xmlns="http://www.w3.org/2000/svg">
<g clip-path="url(#clip0_9890_220)">
<path d="M8.98195 1.5662C8.88296 1.39376 8.74022 1.2505 8.56815 1.15087C8.39608 1.05124 8.20078 0.998779 8.00195 0.998779C7.80312 0.998779 7.60781 1.05124 7.43574 1.15087C7.26367 1.2505 7.12094 1.39376 7.02195 1.5662L0.164946 13.2332C-0.292054 14.0112 0.255946 15.0002 1.14495 15.0002H14.8579C15.7469 15.0002 16.2959 14.0102 15.8379 13.2332L8.98195 1.5662ZM7.99995 5.0002C8.53495 5.0002 8.95395 5.4622 8.89995 5.9952L8.54995 9.5022C8.53819 9.63997 8.47515 9.76831 8.3733 9.86183C8.27145 9.95535 8.13822 10.0072 7.99995 10.0072C7.86167 10.0072 7.72844 9.95535 7.62659 9.86183C7.52474 9.76831 7.46171 9.63997 7.44995 9.5022L7.09995 5.9952C7.08738 5.86943 7.10129 5.74242 7.14079 5.62236C7.18029 5.5023 7.2445 5.39184 7.32929 5.29811C7.41408 5.20437 7.51756 5.12943 7.63307 5.07812C7.74858 5.02681 7.87355 5.00027 7.99995 5.0002ZM8.00195 11.0002C8.26716 11.0002 8.52152 11.1056 8.70905 11.2931C8.89659 11.4806 9.00195 11.735 9.00195 12.0002C9.00195 12.2654 8.89659 12.5198 8.70905 12.7073C8.52152 12.8948 8.26716 13.0002 8.00195 13.0002C7.73673 13.0002 7.48238 12.8948 7.29484 12.7073C7.1073 12.5198 7.00195 12.2654 7.00195 12.0002C7.00195 11.735 7.1073 11.4806 7.29484 11.2931C7.48238 11.1056 7.73673 11.0002 8.00195 11.0002Z" fill="currentColor"/>
</g>
<defs>
<clipPath id="clip0_9890_220">
<rect width="16" height="16"/>
</clipPath>
</defs>
</svg>
